<svg xmlns="http://www.w3.org/2000/svg" width="98" height="56" viewBox="0 0 98 56"><path fill="#de9d1c" d="M87.367 34.322a10.543 10.543 0 01-2.232 6.472l-.017.031-.034.042a13.61 13.61 0 01-1.413 1.481c-1.1 1.013-2.377 1.72-3.802 2.167-.494.154-.987.312-1.489.432-.739.177-1.491.28-2.25.324-.184.011-.366.039-.549.059-.494.055-.988.007-1.481-.024-.827-.05-1.644-.184-2.462-.31-.646-.1-1.293-.211-1.928-.368-.557-.137-1.05-.3-1.63-.512-1.716-.682-3.214-1.642-4.42-2.78.703-.822 2.853-4.503 3.02-4.904.36-.857.745-1.61.942-3.811.085-3.958.065-13.517.065-13.517 1.034.898 2.372 1.466 3.707 1.97l.174.063s5.123 1.58 9.51 3.487l.021.01c.356.163.585.27.585.27 3.38 1.778 5.683 5.315 5.683 9.389zm-76.673-3.04c0-7.626 6.205-13.804 13.859-13.804 1.89 0 3.701.377 5.343 1.06 0 0-.008 6.787 0 9.961a24.8 24.8 0 00.171 2.946c.104.841.265 1.67.483 2.488.187.698.389 1.39.659 2.059.279.69.58 1.372.934 2.027.363.675.744 1.34 1.212 1.955.292.383.593.792.9 1.164a13.843 13.843 0 01-9.702 3.946c-7.654 0-13.859-6.179-13.859-13.801zm87.306 3c0-7.079-3.486-13.348-8.842-17.197-.8-.574-3.882-2.338-4.57-2.605-.6-.233-1.194-.48-1.792-.718-.426-.171-2.871-1.11-2.871-1.11h4.173V2.255H73.97c-2.345.012-4.537.908-6.196 2.318V0H57.15v29.02c0 4.507-3.67 8.161-8.195 8.161-4.526 0-8.196-3.654-8.196-8.16L40.756 0H29.943v2.319H9.5l5.044 6.538C5.97 12.694 0 21.272 0 31.24c0 13.546 11.028 24.528 24.631 24.528a24.641 24.641 0 0018.718-8.584s.252.081.328.101c.49.127.976.265 1.468.381.558.133 1.129.21 1.7.275.42.047.843.108 1.267.124.515.02 1.032.042 1.55.006.482-.035.966-.037 1.445-.088a22.395 22.395 0 001.534-.236c.553-.099 1.06-.23 1.598-.397l.188.215C58.825 52.682 65.889 56 73.854 56 87.19 56 98 46.697 98 35.222c0-.18-.003-.358-.008-.537v-.022z"/><path fill="#0d70c3" d="M85.523 17.584c6 3.153 10.095 9.457 10.095 16.684a51 51 0 01-.018.938c0 10.108-9.592 18.303-21.34 18.303-10.24 0-19.28-6.219-21.305-14.513l.094-.032c.9-.357 1.743-.731 2.506-1.341.388-.31.724-.67 1.079-1.011.231-.223.814-.895.922-1.005.04.08.561 1.508.851 2.179.345.795 1.183 2.302 1.183 2.302 2.264 4.346 8.276 7.547 14.883 7.547 8.832 0 14.139-4.306 15.17-11.783.006-.049.04-1.585.04-1.585 0-4.982-2.784-9.307-6.925-11.473-4.64-2.189-10.804-4.079-10.804-4.079-2.891-.974-4.973-3.66-4.973-6.868 0-4.024 3.276-7.28 7.318-7.28h7.38l-.01 5.796h-7.436c-.752 0-1.39.621-1.39 1.37 0 .473.245.89.614 1.132 0 0 .238.156.357.202.816.31 8.877 3.18 9.205 3.32.465.197.934.389 1.386.614.371.184 1.118.583 1.118.583"/><path fill="#fff" d="M35.908 42.92c-2.92 2.808-6.867 4.509-11.248 4.509-8.963 0-16.23-7.237-16.23-16.163 0-8.929 7.266-16.165 16.23-16.165a16.234 16.234 0 0113.68 7.462l-.003-8.686v-.007a22.152 22.152 0 00-11.226-4.599l.001-.004 3.297-4.63H14.13l4.164 5.398C9.083 12.738 2.37 21.215 2.37 31.263c0 12.223 9.95 22.132 22.225 22.132a22.22 22.22 0 0016.309-7.082c-.074-.045-.113-.058-.173-.09a9.336 9.336 0 00-.396-.21 16.53 16.53 0 01-2.886-1.804c-.461-.358-.896-.75-1.343-1.127-.06-.05-.121-.1-.197-.16z"/><path fill="#d91e28" d="M32.282 19.782s-.083 10.685.012 11.316c.118.78.31 1.402.495 2.09.151.564.321 1.122.546 1.662.441 1.059.936 2.092 1.552 3.06.363.57.72 1.145 1.175 1.65.2.221.389.452.593.668.315.333.631.665.962.983.38.365.791.695 1.21 1.018.5.388 1.019.747 1.56 1.07.858.51 1.744.973 2.691 1.307.509.18 1.017.37 1.539.502.622.157 1.251.29 1.889.388a17.71 17.71 0 002.507.198c.955.01 1.905-.094 2.85-.231.337-.049.546-.076.874-.167l-.055-.089c-1.483-2.319-2.097-4.271-2.415-5.524 0 0-.669.069-.886.077-.692.027-1.378-.053-2.063-.138a5.64 5.64 0 01-.643-.125 11.824 11.824 0 01-1.77-.563 11.481 11.481 0 01-1.937-1.041 9.867 9.867 0 01-1.422-1.19c-.212-.21-.433-.412-.62-.641-.24-.292-.456-.605-.67-.917-.53-.77-.938-1.6-1.238-2.484-.374-1.098-.576-2.129-.729-3.264 0 0-.612-5.995-6-9.61zM65.41 2.345s-.002 19.256 0 28.596a14.1 14.1 0 01-.166 2.123c-.438 3.207-3.397 6.534-3.234 6.371 0 0-.558-.8-.751-1.124-.17-.285-.315-.585-.476-.875-.313-.565-1.01-2.53-1.11-2.907-.115-.435-.24-.6-.24-1.327.004-1.57 0-30.857 0-30.857zM32.245 7.944A24.674 24.674 0 0138.34 10.9V2.345h-6.094V7.93"/></svg>