<svg width="280" height="90" xmlns="http://www.w3.org/2000/svg" viewBox="5 0 228.667 76">
    <path fill="#DC2F34" d="M39.69,30.425c-1.168,0.455-2.338,1.026-4.441,2.167 c-4.677,2.509-8.067,8.555-0.936,11.75c7.132,3.081,9.235,7.531-0.351,11.866c-7.832,3.535-14.847,8.212-17.184,13.346 c-1.17-0.913-2.223-1.825-3.275-2.967c-7.013-7.414-8.651-18.593-5.61-29.088c0.116-0.57,0.816-1.027,1.52-1.255 C15.725,33.733,31.507,30.31,39.69,30.425"></path>
    <path fill="#004289" d="M72.307,12.628c11.927,12.777,8.536,36.276-7.717,50.764 c-2.57,2.397-6.544,4.563-9,6.161c-3.741,2.395-8.417-0.57-4.326-5.021c13.795-14.942,8.301-18.251-8.884-23.726 c-5.26-2.169-2.337-8.215,0.935-10.953h0.118c0.116-0.115,0.235-0.115,0.235-0.227c0.232-1.941,1.402-3.538,2.807-3.765 l0.816-11.295c0-0.113,0.117-0.229,0.233-0.343c0.119,0,0.235-0.112,0.351-0.112c0.118,0,0.35,0.112,0.467,0.112 c0,0.115,0.119,0.229,0.119,0.343l0.817,11.295c1.636,0.112,3.039,2.165,3.039,4.562v0.113c1.986,0.228,7.131,0.798,11.224,2.167 c4.208,1.254,6.547,2.51,7.597,3.307c1.169-3.877,1.989-15.514-7.948-21.9c-15.199-8.1-31.8-0.458-43.257,8.327 c-1.868,1.482-4.09-0.229-2.454-1.826c1.052-1.026,1.87-2.053,3.625-3.421c1.754-1.597,3.506-3.079,5.377-4.334 C41.678,2.248,61.436,1.334,72.307,12.628"></path>
    <path fill="#004289" d="M102.818,57.117c-0.231-0.115-0.582-0.115-0.7-0.115 c-1.403,0-2.455,0.801-2.923,2.283v-2.052h-1.754v9.808h1.873v-4.904c0-2.166,1.05-3.423,2.688-3.423c0.234,0,0.466,0,0.816,0.114 V57.117z M87.622,52.44v14.601h1.87v-5.133l4.443,5.133h2.337l-5.026-5.588l4.443-4.219h-2.105l-4.093,3.875V52.44H87.622z M109.717,60.998v1.254h-0.702c-2.34,0-3.507,0.684-3.507,1.938c0,1.028,0.702,1.711,1.87,1.711c1.052,0,1.87-0.455,2.339-1.254 v1.482c-0.702,0.686-1.636,1.027-2.922,1.027c-1.87,0-3.157-1.141-3.157-2.853c0-2.167,1.753-3.308,5.259-3.308h0.82V60.998z M109.717,57.233v2.052c-0.352-0.57-1.052-0.914-1.986-0.914c-0.936,0-1.872,0.229-2.922,0.801v-1.482 c1.05-0.455,2.221-0.686,3.389-0.686C108.784,57.002,109.25,57.002,109.717,57.233 M109.717,39.322v1.48 c-1.753,0-3.041,1.484-3.041,3.654c0,2.279,1.288,3.763,3.041,3.763v1.485c-3.041,0-5.028-1.941-5.028-5.135 C104.689,41.262,106.676,39.322,109.717,39.322 M87.74,35.786v13.689h1.752V38.753c0-0.116-0.116-0.799-0.116-2.055 c0.116,0.799,0.35,1.367,0.468,1.597l4.325,11.178h1.753l4.441-10.95c0.236-0.458,0.351-1.141,0.585-1.939 c-0.117,0.799-0.117,1.481-0.117,2.169v10.722h1.871V35.786h-2.923l-4.325,10.609c-0.116,0.227-0.234,0.801-0.35,1.711 c0-0.685-0.116-1.256-0.234-1.711l-4.208-10.609H87.74z M114.746,57.233v10.264c0,1.599-0.354,2.399-1.404,2.399 c-0.233,0-0.468,0-0.702-0.116l-0.116,1.37c0.466,0.113,0.817,0.227,1.169,0.227c2.104,0,2.92-1.254,2.92-3.88V57.233H114.746z M114.746,54.494h1.753V52.67h-1.753V54.494z M122.342,39.436h-0.817c-1.285,0-2.337,0.799-2.921,2.169v-2.054h-1.637v9.924h1.87 v-5.018c0-2.17,0.935-3.31,2.688-3.31c0.234,0,0.469,0,0.7,0.114L122.342,39.436z M109.717,49.705V48.22 c1.87,0,3.039-1.369,3.039-3.763c0-2.283-1.169-3.654-3.039-3.654v-1.48c3.039,0,5.028,2.053,5.028,5.248 C114.746,47.762,112.756,49.705,109.717,49.705 M109.717,66.131v-1.483c0.351-0.456,0.467-1.027,0.467-1.712v-0.684h-0.467v-1.254 h0.467V60.77c0-0.572-0.116-1.143-0.467-1.484v-2.052c1.52,0.456,2.221,1.712,2.221,3.874v5.934h-1.636v-1.596 C110.184,65.675,109.951,65.902,109.717,66.131 M127.37,43.43v1.255c-1.52,0.228-2.339,0.911-2.339,1.938 c0,0.914,0.701,1.711,1.754,1.711c0.234,0,0.352-0.114,0.584-0.114v1.255c-0.35,0.115-0.701,0.115-1.05,0.115 c-1.87,0-3.159-1.141-3.159-2.854C123.161,44.797,124.566,43.656,127.37,43.43 M127.37,39.322v1.369h-0.232 c-0.817,0-1.754,0.342-2.806,0.913v-1.481C125.266,39.666,126.201,39.436,127.37,39.322 M151.805,34.759v14.715h1.869v-5.134 L158,49.475h2.338l-5.027-5.702l4.561-4.222h-2.223l-3.975,3.992v-8.784H151.805z M149.232,39.893 c-0.937-0.342-1.754-0.457-2.572-0.457c-2.338,0-3.626,1.143-3.626,2.625c0,1.369,0.937,2.053,2.69,2.967 c1.17,0.568,1.87,0.912,1.87,1.709c0,0.915-0.701,1.483-1.987,1.483c-0.819,0-1.754-0.227-2.689-0.685v1.598 c0.818,0.341,1.754,0.455,2.57,0.455c2.572,0,4.096-1.254,4.096-2.967c0-1.48-0.937-2.166-2.807-2.965 c-1.17-0.57-1.871-1.025-1.871-1.711c0-0.684,0.582-1.142,1.637-1.142c0.936,0,1.753,0.229,2.57,0.571L149.232,39.893z M132.864,39.551l3.509,9.923h2.219l3.508-9.923h-1.754l-2.802,8.326l-2.573-8.326H132.864L132.864,39.551z M127.37,49.475V48.22 c1.405-0.227,2.34-1.254,2.34-2.853V44.57h-1.287c-0.35,0-0.702,0-1.053,0.114V43.43h0.934h1.406V43.2 c0-1.482-0.935-2.396-2.34-2.509v-1.369h0.351c2.456,0,3.743,1.369,3.743,4.107v6.045h-1.637v-1.711 C129.24,48.791,128.423,49.248,127.37,49.475 M165.834,39.322v1.48c-1.754,0-3.043,1.484-3.043,3.654 c0,2.279,1.289,3.763,3.043,3.763v1.485c-3.159,0-5.027-1.941-5.027-5.135C160.807,41.262,162.675,39.322,165.834,39.322 M181.031,49.475h1.869V34.759h-1.869V49.475z M178.576,39.893c-0.819-0.342-1.637-0.457-2.456-0.457 c-2.341,0-3.742,1.143-3.742,2.625c0,1.369,1.053,2.053,2.807,2.967c1.166,0.568,1.87,0.912,1.87,1.709 c0,0.915-0.818,1.483-1.986,1.483c-0.82,0-1.755-0.227-2.69-0.685l-0.116,1.598c0.935,0.341,1.754,0.455,2.688,0.455 c2.571,0,4.091-1.254,4.091-2.967c0-1.48-1.05-2.166-2.804-2.965c-1.287-0.57-1.989-1.025-1.989-1.711 c0-0.684,0.702-1.142,1.755-1.142c0.819,0,1.754,0.229,2.573,0.571V39.893z M165.834,49.705V48.22c1.754,0,3.036-1.369,3.036-3.763 c0-2.283-1.282-3.654-3.036-3.654v-1.48c3.036,0,4.91,2.053,4.91,5.248C170.744,47.762,168.87,49.705,165.834,49.705 M189.799,39.322v1.369c-1.405,0-2.454,1.14-2.689,3.08h2.689v1.141h-2.689c0.117,1.824,1.053,3.08,2.689,3.307v1.484 c-2.807-0.229-4.561-2.168-4.561-5.248C185.238,41.488,187.109,39.436,189.799,39.322 M210.84,39.893 c-0.936-0.342-1.753-0.457-2.57-0.457c-2.223,0-3.623,1.143-3.623,2.625c0,1.369,0.932,2.053,2.805,2.967 c1.053,0.568,1.751,0.912,1.751,1.709c0,0.915-0.699,1.483-1.983,1.483c-0.823,0-1.754-0.227-2.691-0.685v1.598 c0.82,0.341,1.754,0.455,2.572,0.455c2.69,0,4.091-1.254,4.091-2.967c0-1.48-0.935-2.166-2.688-2.965 c-1.284-0.57-1.988-1.025-1.988-1.711c0-0.684,0.585-1.142,1.635-1.142c0.937,0,1.754,0.229,2.571,0.571L210.84,39.893z M195.41,39.551v1.482h5.379l-5.611,6.844v1.597h7.83v-1.481h-5.846l5.846-6.846v-1.596H195.41z M189.799,44.912v-1.141h2.688 c-0.116-2.055-1.053-3.08-2.571-3.08h-0.117v-1.369h0.234c2.572,0,4.208,1.824,4.208,4.905v0.685H189.799L189.799,44.912z M189.799,49.705V48.22c0.234,0,0.584,0.114,0.818,0.114c0.938,0,1.87-0.341,2.807-0.799v1.598c-0.937,0.455-1.988,0.57-3.158,0.57 h-0.467V49.705z M221.832,49.359l-4.914-5.587l4.561-4.222h-2.219l-3.978,3.992v-8.784h-1.87v14.715h1.87v-5.134l4.326,5.134h2.224 V49.359L221.832,49.359z M221.832,39.551v0.455l-0.117-0.455H221.832z M227.09,34.874l-1.984,3.423h1.047l2.807-3.423H227.09z M221.832,40.006l3.74,9.809c-0.702,1.602-1.286,2.398-2.221,2.398c-0.354,0-0.586,0-0.937-0.114l-0.118,1.482 c0.467,0.114,0.936,0.114,1.17,0.114c1.868,0,2.805-1.025,3.623-3.193l3.978-10.951h-1.872l-2.688,8.101l-2.808-8.101h-1.867V40.006 L221.832,40.006z M221.832,49.475v-0.115l0.231,0.115H221.832z"></path>
</svg>