<?xml version="1.0" encoding="utf-8"?>
<!-- Generator: Adobe Illustrator 24.1.1, SVG Export Plug-In . SVG Version: 6.00 Build 0)  -->
<svg version="1.1" id="Vrstva_1" xmlns="http://www.w3.org/2000/svg" xmlns:xlink="http://www.w3.org/1999/xlink" x="0px" y="0px"
	 viewBox="0 0 5052.5 4426.3" style="enable-background:new 0 0 5052.5 4426.3;" xml:space="preserve">
<style type="text/css">
	.st0{fill:#2F3F92;}
	.st1{display:none;}
	.st2{display:inline;fill:none;stroke:#E83B39;stroke-width:56.6929;stroke-miterlimit:10;}
	.st3{fill:#7F8286;}
	.st4{fill:#E83B39;}
	.st5{fill:#FFFFFF;}
	.st6{fill:none;}
	.st7{font-family:'ArialMT';}
	.st8{font-size:12px;}
	.st9{font-family:'SSNicksonOne';}
	.st10{font-size:274.9606px;}
	.st11{letter-spacing:11;}
</style>
<g id="původní">
	<g>
		<path class="st0" d="M3732.9,3542.2c6.2,0,11.3,0.2,16.5,0c32.1-1.3,54.9,13.4,68.9,41.6c14.5,29,14.3,57.7-5,84.7
			c-4.2,5.8-9.6,11.2-15.6,15.1c-15.5,10.2-31.5,19.8-47.7,28.9c-37,20.9-74.2,41.4-111.4,61.9c-4.5,2.5-9.3,4.4-14,6.6
			c-1-2.1-2.3-3.5-2-4.4c4.8-15.9-0.4-30.2-7.7-43.8c-23.7-43.8-47.7-87.5-71.7-131.1c-8.3-15.1-16.6-30.3-25.3-45.2
			c-7.4-12.8-16.4-24.2-30.2-31c-2.1-1-3.5-3.6-6.2-6.4c11.9-6.7,22.8-12.9,33.7-19c30.2-16.7,60.6-33.1,90.6-50.2
			c15.7-8.9,32.2-16.3,49.5-20.5c35.6-8.6,52.1-2.3,71.1,21.3c18.6,23.1,23.1,48.7,9.4,76.2c-1.5,2.9-2.7,6-3.7,9.1
			C3731.9,3537.1,3732.5,3538.6,3732.9,3542.2z M3726.8,3633.7c-0.5-15-13.5-28.6-25.7-27c-11.7,1.5-23.2,5-32.3,13.6
			c-3.3,3.1-4,6.9-1.8,10.7c5.8,10.4,11.7,20.7,17.8,30.8c2.7,4.5,7.3,5.7,12.1,3.7c11.3-4.7,20.1-12.6,27-22.5
			C3725.8,3640,3726.2,3635.8,3726.8,3633.7z M3609.4,3527.6c6,11,11.8,22.1,18,33c4,7.1,10.2,9.4,16.5,4.9
			c6.9-4.9,13.7-10.6,19-17.1c9.3-11.6,2.6-30.9-11.5-35.7c-7.9-2.7-15.9-1.8-23.4,0.7C3620.5,3515.8,3613.1,3519.1,3609.4,3527.6z"
			/>
		<path class="st0" d="M2883.5,3885.9c-3.6,8.8-1.8,16.7-0.5,24.5c2.2,13.8,4.4,27.6,6.9,41.3c2.3,12.6,6.8,24.3,15.5,34.1
			c2,2.3,3.7,4.9,6.3,8.2c-11.9,5.1-23,6-34,7.5c-23,3.2-46,6.9-69.1,9.9c-6.2,0.8-12.9,3-20.6-0.9c11.9-18.7,10.8-38.1,7.7-58.2
			c-5.5-36.8-10.2-73.8-15.2-110.7c-3.3-24.4-6.5-48.7-9.9-73.1c-2.4-17.4-8.3-33.4-21.1-45.2c1.1-5.2,4.6-5.4,7.8-6
			c18.9-3.8,37.8-7.6,56.7-11.4c5.3-1.1,107.6-10,113.1-9.9c19,0.4,36.8,5.1,53,15.4c12.2,7.8,20.2,18.5,25.6,32.1
			c6.2,15.3,8,30.8,7.5,46.9c-0.6,23.7-9.7,42.4-31.2,54.2c-2.8,1.5-5.1,4.1-7.5,6.2c-0.4,0.4-0.3,1.2-0.9,3.5
			c15.6,19.3,31.6,39.5,48.1,59.3c16.1,19.3,30.9,39.9,51.1,53.6c-0.3,6.3-3.8,7-6.9,7.9c-2.5,0.8-5.2,1.2-7.8,1.6
			c-25.7,3.6-51.4,6.8-77.1,10.8c-10,1.6-16.2-2-22-9.7c-20.9-28.4-42.3-56.5-63.5-84.7c-1.6-2.1-3-4.6-5.2-5.9
			C2888.6,3886,2885.8,3886.3,2883.5,3885.9z M2886.9,3763.8c-3.3,0.2-7.3,0.2-11.2,0.7c-7.6,1.1-10.7,4.4-10.5,11.8
			c0.2,7.3,0.7,14.6,2,21.8c4.9,26.8,5.1,28.3,34.1,19.7c12.7-3.8,20.4-17.1,18.8-29.4c-2-15.1-9.5-22.4-24.4-24.1
			C2892.9,3763.9,2890.2,3763.9,2886.9,3763.8z"/>
		<path class="st0" d="M1389.4,3444.2c52.1,2.3,92.6,25.6,121.4,68.9c12.9,19.4,17.2,41.5,17.6,64.6c0.5,28.5-5.8,55.5-18.8,80.7
			c-16.8,32.6-39.2,60.2-72.1,77.8c-24.6,13.2-50.6,17.9-78.8,14.9c-31.8-3.4-58.7-16.5-82.2-37c-26.8-23.5-40.3-53.5-41.6-89.4
			c-2.1-57.1,21-103.3,60.6-142.2C1320.4,3457.9,1355.7,3443.8,1389.4,3444.2z M1328.9,3618.5c-0.9,15.9,4.1,28.2,18,37.3
			c14.3,9.4,27.5,7.9,40.7-0.8c6.6-4.4,13.4-8.9,18.3-14.9c13.1-16,23.4-33.3,27.3-54.4c2-10.6,0.8-20.1-3.5-28.9
			c-11-22.4-36.3-25.6-50.6-17.1C1349.2,3557.4,1333,3584.2,1328.9,3618.5z"/>
		<path class="st0" d="M886.3,3389c-58-2.1-99-31-124.2-82.3c-18.8-38.4-16.2-78.1,2.3-115.6c24.5-49.5,63.8-83.9,117.2-98.3
			c53.3-14.3,102,0.7,139.3,45.8c24.9,30.1,36,64.7,31.6,104c-1.7,14.8-6.5,28.6-12.7,41.8c-21.3,45.6-56.7,76.7-102.8,95.3
			C921.4,3386.1,904.3,3390.4,886.3,3389z M881.5,3295.6c2.9-0.3,6.9-0.6,10.8-1.1c2-0.2,4.1-0.4,5.8-1.2
			c28.9-13.2,51.5-32.3,62.2-63.7c5-14.6,0.7-26.5-8.8-36.6c-9.9-10.7-22.4-17-37.7-12.1c-32.2,10.4-54.3,31.3-69.2,61.9
			C832.1,3269,858.7,3298.4,881.5,3295.6z"/>
		<path class="st0" d="M1240.8,3339.1c4.5,2,7.2,2.7,9.2,4.2c28.1,21.3,56.1,42.7,84.1,64.1c0.9,0.7,0.9,2.3,1.8,4.7
			c-7.4,4.5-16.3,3.3-24.2,5.5c-8.4,2.2-16.9,3.9-25.2,6.3c-8.9,2.5-17.8,5.5-26.6,8.3c-8.2,2.7-16.4,5.5-24.6,8.2
			s-16.5,5.2-24.6,8.2c-8,2.9-15.9,6.3-24,9.6c-1.2,5.4-2.6,9.8-3.1,14.3c-3.3,29.7-6.4,59.5-9.7,89.2c-1.6,14.5-3.3,29.1-5.5,43.5
			c-2,13.3-2,26.5,0.9,39.7c0.6,2.5,0.4,5.2,0.8,9.5c-3.9-1.1-7.3-1.1-9.5-2.7c-27.1-20.4-54-41.1-81.2-61.4
			c-6.8-5.1-8.2-10.7-6.4-19c5.4-25.3,9.8-50.9,14.7-76.3c2-10.4,4.5-20.8,6.3-31.2c1.5-8.3,4.5-16.7,0-25.4c-2.3,0.4-5,0.1-5.8,1.2
			c-16.8,22.3-33.3,44.8-50.1,67.1c-8.8,11.7-10.8,25.4-11.9,40.7c-3.4-1.1-6-1.4-7.8-2.7c-28.1-21.2-56.2-42.6-84.1-64.1
			c-2.9-2.2-4.9-5.6-7.7-8.9c8.1-4.2,15.7-6.7,21.7-11.5c8.2-6.6,16.1-14.1,22.5-22.5c36.8-48.1,73.1-96.5,109.6-144.8
			c1.6-2.1,3.3-4.2,4.8-6.4c10.1-14.2,19-28.9,18.9-48.1c3.4,0.4,6.4-0.1,8.1,1.2c28.8,21.5,57.4,43.2,85.9,65
			c1.4,1.1,2.2,3.1,3,4.3c0.2,4.3-2.9,5.1-5.1,5.7c-10.9,2.8-19.1,9.7-25.8,17.9c-15.1,18.6-29.6,37.6-44.3,56.6
			c-1.5,1.9-1.9,4.7-3.4,8.6c3.8,0,6.5,0.7,8.6-0.1c27.3-10.5,54.6-20.9,81.6-32C1224.5,3360.6,1233.7,3351.9,1240.8,3339.1z"/>
		<path class="st0" d="M3218,3934.2c-35.1,11.5-69,22.6-104.6,34.3c0.2-3.8-0.4-6.7,0.6-8.5c8.9-15.1,8.7-31.8,9.5-48.4
			c0.8-15.9,2.4-31.7,3.1-47.6c0.8-15.2-1.4-30.6,2.6-45.7c0.7-2.5,0.1-5.3,0.2-8c0.3-30,0.5-59.9,1.1-89.9
			c0.2-8.6,1.6-17.2,1.8-25.9c0.5-14,1.3-28.1-9.5-40.7c3.4-2.5,5.5-5.2,8.3-6.1c32.2-10.5,64.4-20.8,96.6-30.9
			c5.6-1.8,11.4-2.7,18.2-4.3c1.1,4.2,2.5,7.1,2.6,10.1c0.3,7.2,4.4,12.4,8.4,17.7c23.9,32,47.8,64,71.8,95.9
			c19.6,26.1,39.6,51.9,59,78.1c12.7,17.3,25.9,33.9,45.4,44.1c0.9,0.5,1.1,2.1,2.3,4.6c-32.5,13.2-66.8,21-99.4,33.3
			c-2.2,0.8-5.1,0.1-7.8,0.1c-4.6-22.4-19-37.9-32.9-54.8c-18.2,5.8-35.8,11.4-53.4,17.1c-6.3,2-12.6,4.2-19,5.9
			c-8,2.2-12.8,7.2-13.2,15.5c-0.5,10.6-0.6,21.3,0,31.9c0.3,4.4,3.2,8.5,4.8,12.8C3215.8,3927.6,3216.8,3930.6,3218,3934.2z
			 M3255.5,3780.9c-1.3-3.5-1.7-6.2-3.1-8.2c-10.7-15.8-21.7-31.6-32.6-47.3c-0.7-1.1-1.8-2.8-2.7-2.7c-2.3,0.1-5,0.5-6.7,1.8
			c-1.2,0.9-1.6,3.6-1.6,5.5c-0.1,19.2-0.2,38.3,0.2,57.5c0.1,3.4,2.5,6.8,4.1,11.1C3227.9,3793.7,3242.5,3792.1,3255.5,3780.9z"/>
		<path class="st0" d="M4184.6,2935c13.3,13,13.2,13.3,33.8,20.2c39.7,13.3,79.6,26.1,119.3,39.3c27.1,9,53.9,18.8,81.1,27.5
			c13.9,4.4,28.2,7.7,42.5,10.6c5.6,1.2,11.6,0.2,18.1,0.2c0.1,1.3,1.1,3.7,0.4,4.8c-21,28.2-42.3,56.3-64.2,85.4
			c-3-2.6-5.5-4.6-7.7-6.7c-12.1-11.5-28.3-14-43.2-19.5c-4.5-1.7-9.2,0.2-12.5,4.3c-2.1,2.6-4.5,5-6.4,7.6
			c-13.9,18.6-27.8,37.2-42.1,56.3c9.4,20.8,20.9,38.9,41.7,51.2c-21.8,28.9-43,56.9-64.2,84.9c-0.6,0.8-2.3,0.8-3.5,1.1
			c-0.8-0.9-2.4-1.9-2.4-2.8c0.4-13.3-4.7-24.6-11.7-35.4c-22.7-35.2-45.3-70.6-68-105.8c-20.5-31.9-41.3-63.7-61.6-95.7
			c-6.6-10.4-15.7-17.8-26.9-24.4c1.1-2.8,1.5-5.5,2.9-7.4c22.9-30.3,45.9-60.5,68.9-90.6C4180.6,2938.2,4182.8,2936.7,4184.6,2935z
			 M4221.1,3042.5c0,4.3-1.2,8,0.2,10.1c11.1,17.2,22.7,34.1,34.3,51c2.1,3,6.3,3.8,8.8,1.2c9.7-10.5,20.6-20.4,24.8-34.9
			c0.2-0.6-0.3-1.3-0.8-3.7C4267.1,3058.4,4245.3,3049.5,4221.1,3042.5z"/>
		<path class="st0" d="M2405.5,4025.7c17.9-17.3,23.9-37.7,30.5-57.9c12.6-38.5,25.8-76.7,38.5-115.2c10.3-31.5,19.9-63.3,30.4-94.8
			c2.9-8.7,4.2-16.6-0.8-24.8c-0.5-0.8,0.4-2.4,1-5.2c8-0.5,16.4-1,24.8-1.4c31.1-1.4,62.3-2.8,93.4-4.1c3.1-0.1,6.2,0.5,9.4,0.8
			c-2,15.9-2.3,16,4.1,33.2c9.9,26.7,20.5,53.3,30.6,79.9c13.7,35.9,27.8,71.7,40.9,107.9c9.1,25.1,18.6,49.8,37.4,68.7
			c-0.5,1.7-0.5,2.4-0.9,2.9c-0.3,0.5-1,1-1.5,1c-35.8,1.2-71.6,2.4-107.4,3.4c-1.1,0-2.2-1.2-4.4-2.5c6.1-18.2-3.7-34.2-9.2-50.9
			c-2.1-6.4-7.6-9.3-14-9.4c-15.3-0.2-30.6-0.3-45.9,0.2c-7.9,0.2-15.7,1.9-23.6,2.6c-7.5,0.6-12.6,4-14.8,11.2
			c-2.9,9.5-6.7,18.9-8.2,28.7c-1.2,7.5,0.4,15.5,0.7,23.4C2492.4,4027.6,2432.3,4029.1,2405.5,4025.7z M2569.6,3818.8
			c-2.1,1.6-3,1.8-3.1,2.4c-6.6,20.7-13.3,41.4-19.5,62.2c-1.5,5.1,3.5,10.5,9.2,10.4c10.6-0.3,21.2-0.8,31.6-2.1
			c3.3-0.4,6.3-3.5,9.6-5.4c-4.3-12.5-8.2-23.7-12.1-34.8C2581.3,3840.4,2579.7,3828.3,2569.6,3818.8z"/>
		<path class="st0" d="M3719.8,3387.9c52.4-39.6,103.2-77.9,153.7-116c15.2,12.1,50.5,47.8,58.8,59.6c-9.2,1.9-18.6,2.1-25.9,8.3
			c-6.6,5.5-14,10.1-21,15.1c-9.2,6.6-18.4,13.2-27.3,20.2c-5.4,4.2-6,8.3-1.7,13.8c5.6,7.2,10,15.8,18.6,20.1
			c19.9-9.3,43.2-29.1,61.4-52c1.3,0.4,3,0.3,3.7,1.1c15.9,20.5,31.7,41,47.4,61.6c1.5,2,2.1,4.6,3.6,8.1c-3.4,0.8-5.8,1.7-8.1,1.8
			c-9.8,0.1-17.9,3.5-25.5,9.8c-9.2,7.6-19.2,14.3-28.7,21.6c-3,2.3-5.6,5.3-8.8,8.5c3.8,10.9,11.6,18.3,18,26.6
			c2.8,3.6,8.2,3.7,12.7,0.4c11.8-8.6,23.8-17.1,35.1-26.4c8.7-7.1,16.9-15,24.8-23.1c4-4.1,6.7-9.5,10.2-14.6
			c8.8,10.1,33.3,51.7,41.1,69.7c-2.5,2.9-4.9,6.9-8.4,9.5c-48.3,36.6-96.7,72.9-145.1,109.3c-2.5,1.9-5.4,3.1-7.9,4.4
			c-1.8-1.9-3.4-2.8-3.4-3.7c0.4-14-5-25.9-12.8-37c-9.9-14.2-19.9-28.3-30.2-42.1c-27.8-37.3-55.9-74.5-83.9-111.8
			C3753.6,3408.3,3745.6,3401.6,3719.8,3387.9z"/>
		<path class="st0" d="M1896.1,3839.4c6.4,7.3,10,10.8,12.9,14.9c7.1,9.9,15.9,18,26.6,23.8c5.2,2.8,10.9,5,16.6,6.4
			c8.5,2,15.7-1.3,21.3-7.8c4-4.6,4.8-9.4,1.5-14.7c-3.9-6.2-8.2-12.1-12.8-17.8c-8.3-10.4-16.9-20.6-25.5-30.8
			c-10.5-12.5-17.7-26.8-21.6-42.3c-7.5-29.4,6.5-74.2,43.7-92.6c12.1-6,24.7-9,38.4-9.2c21.5-0.3,42.6,0.7,62.5,9.9
			c11.6,5.4,23.8,8.4,36.7,7.9c2.3-0.1,4.7,1.6,7.9,2.8c-5.4,29.8-10.7,58.9-16,87.8c-6.3,1.6-9.3-2.6-12.7-5.4
			c-9.5-7.4-19.1-14.6-30.7-18.2c-3.7-1.1-8-1.9-11.7-1.1c-14.8,3.1-19,14.7-9.5,26.6c7.1,8.8,15,16.9,22.5,25.4
			c7,8,14,16,20.5,24.5c15.7,20.4,19.1,44.1,13.7,68.3c-6.6,29.9-23,53.9-51.8,66.9c-9.5,4.3-20.2,7.2-30.6,8.1
			c-24.7,2.3-49.1,0.3-72.2-10.6c-14.3-6.7-29.2-12.2-44.8-18.6c-2.2-16.7,5.3-33,6.8-50C1889.3,3877.2,1892.7,3860.9,1896.1,3839.4
			z"/>
		<path class="st0" d="M649.9,2975.2c0,13.7-0.4,23.6,0.1,33.5c0.3,7.3,1.1,14.6,2.9,21.7c2.5,10,8.5,17.9,17.4,23.4
			c7.1,4.4,11.3,3.6,17.8-2.3c6.6-6,7.4-13.6,8-21.8c1.4-21.2,3.1-42.4,6.7-63.4c6.1-36.8,42-67.9,85.7-65.2
			c34.1,2.1,58.7,19.6,77.1,47c4.8,7.1,8.7,14.9,12.5,22.7c6.2,12.6,13,24.7,23.4,34.5c1.3,1.2,1.7,3.4,3.2,6.5
			c-21.9,16.1-43.7,32.2-65.6,48.2c-2,1.4-4.7,1.7-6.8,2.4c-6.5-5-4.7-11.6-4.8-17.2c-0.3-10.5-4.2-19.4-9.6-28
			c-1.7-2.8-4-5.4-6.4-7.6c-10.4-9.4-22-6.6-26.5,6.9c-1.9,5.5-2.3,11.7-2.5,17.7c-0.4,12.6,0.4,25.3-0.2,38
			c-2.1,43.4-21.1,68.6-57.8,82.4c-38.7,14.6-72.8,6.6-103.1-21.2c-14.6-13.4-25-29.2-32.3-47.4c-6.2-15.4-11.5-31.1-23.2-44.8
			c12.6-13.3,26.8-22.9,40.4-33.1C620,2997.7,633.7,2987.4,649.9,2975.2z"/>
		<path d="M3998.9,1201.1c1.4-1,3.3-1.9,4.5-3.3c22.5-28,44.9-56.1,67.3-84.3c3.7-4.7,7.7-9.3,10.7-14.4c6.7-11.4,14-22.8,12.3-37.1
			c-0.1-0.9,1.4-1.9,3.1-4.1c22,14.4,40.2,33.7,63.9,49c-3.8,2.6-5.5,4.8-7.5,5.1c-13.2,2-23.6,9.1-32,18.8
			c-18.2,21.2-36.3,42.5-54,64.1c-18.2,22.1-36.2,44.3-54,66.7c-6.6,8.3-12.5,17.2-18.6,25.9c-6.7,9.5-8.8,20.5-9.1,31.7
			c-2.2,0.2-3.9,0.8-4.7,0.3c-17-12.7-33.4-26.1-49.4-40.4c9.1-69.8,18.1-138.8,27-207.6c-8-2.3-11,2.4-14.3,6.5
			c-10.4,13-20.7,26-31.1,39c-12.5,15.6-25.3,30.9-37.5,46.7c-11.4,14.7-22.5,29.8-19.9,50c-3.5,0-5.3,0.5-6-0.1
			c-18.3-14.4-36.5-28.9-54.6-43.5c-1.4-1.1-2-3.2-2.8-4.7c1.1-1.4,1.7-3,2.6-3.2c19.4-5.4,33.7-17.4,46.1-33.1
			c32.2-40.7,65.2-80.8,97.9-121.1c0.8-1,1.7-2,2.5-3.1c11.5-15.5,23.6-30.7,21.6-52.2c3.1,0.2,5.5-0.4,6.7,0.6
			c14.5,11.7,28.8,23.7,43.3,35.3c7,5.6,8.9,11.7,7.5,20.8c-6.1,39.4-11.2,79-16.7,118.5c-2.9,20.4-5.9,40.8-8.7,61.2
			C3994.1,1193.7,3992.2,1198.8,3998.9,1201.1z"/>
		<path d="M2683.4,600.3c-2.2,6-4.2,9.3-4.5,12.8c-0.7,7.9-0.1,16-0.8,23.9c-1.5,17.2-3.7,34.3-5.1,51.5
			c-1.4,16.6-2.5,33.2-3.3,49.8c-0.6,12.8,1,25.2,9.4,35.8c1.1,1.4,1.2,3.6,2.1,6.7c-9.4,4.7-18.3-0.4-27-0.5
			c-8.6-0.1-17.2-1.2-25.8-2.2c-9-1-18.4,1.2-27.7-2.7c0.8-2.7,0.7-5,1.9-6.1c13.7-13.3,18.4-30,19.7-48.5
			c1.5-21.2,3.9-42.3,5.9-63.5c0.6-6.6,1.4-13.2,2-19.8c2.4-25.1,4.3-50.3,7.2-75.4c2.4-21.1,0.8-41-15-58.7c3.7-1.4,6.1-3.2,8.3-3
			c19.8,1.8,39.5,4,59.3,6c6.5,0.6,11,3.4,14,9.5c7,14.3,14.6,28.3,21.6,42.7c12.5,25.7,24.8,51.5,37.1,77.3
			c7.4,15.6,14.7,31.2,22.1,46.8c1.1,2.3,2.5,4.4,3.5,6.2c5.5,0,6.2-3.6,6.7-6.7c1.2-7.9,2.2-15.8,2.8-23.7
			c2.4-32.5,4.8-64.9,6.7-97.4c0.8-13.3-0.1-26.6-9.6-37.6c-2.8-3.3,0.7-8.6,5.2-8c24.1,3.5,48.8,2,72.9,8.2c-0.2,2.3,0.4,5-0.7,5.9
			c-16.4,14.6-18,34.9-21,54.5c-1.5,9.8-0.9,19.9-1.7,29.9c-1.3,15.2-3.1,30.4-4.5,45.6c-1.1,11.9-1.8,23.9-2.9,35.8
			c-1.2,12.6-2.8,25.1-3.8,37.6c-1.6,20-2.7,40,9.9,57.6c0.6,0.8,0.1,2.5,0.1,5.1c-1.9,0.5-4.2,1.9-6.5,1.7
			c-16.6-1.1-33.1-2.8-49.7-3.7c-7.6-0.4-11.9-4-15.1-10.7c-10.1-20.9-20.9-41.5-31.3-62.3c-17.2-34.5-34.2-69-51.5-103.5
			C2691.6,612.1,2688,607.4,2683.4,600.3z"/>
		<path class="st0" d="M2176,4003.1c5-8.9,11.5-17,14-26.1c4.1-15.4,6.2-31.3,8-47.2c4.9-44.3,9.1-88.7,13.6-133
			c1.2-12.1-4.2-19-16.7-19.4c-22.1-0.6-44,0.2-63.3,13.3c-1.8,1.2-4.6,1.1-8.9,2c5.7-30.9,13.8-59.5,21.7-88.9
			c4.5-0.3,8.4-1.2,12.1-0.8c15.2,1.6,30.4,3.6,45.6,5.3c9.9,1.1,19.9,1.9,29.8,2.9c36.4,3.7,72.8,7.3,109.2,11.2
			c12.6,1.3,25.1,3.1,37.6,4.9c4.2,0.6,8,3.1,7.9,7.7c-0.3,27.8,6.3,55.4,2.1,83.1c-5,2.2-7.7-1.5-10.5-3.9
			c-17.8-15.9-39.9-20.6-62.5-23.7c-8.6-1.2-12.9,3.5-13.9,13c-4.9,45-10.3,89.9-14.7,134.9c-1.6,16.5-1.5,33.3-1.3,49.9
			c0,5,2.5,10.1,4.3,15c1.4,3.6,3.5,6.9,5.7,11.1c-5.4,3.9-10.7,3-15.6,2.5c-33-3.7-66.1-7.5-99.1-11.5
			C2179.3,4005.1,2177.7,4003.9,2176,4003.1z"/>
		<path class="st0" d="M3889.7,3264.1c2.4-3.9,3.3-6.4,5.1-8.1c26.7-26.8,53.5-53.5,81.6-81.5c2.5,4.2,4.8,6.6,5.3,9.4
			c2.7,14.5,11.2,25.6,21.1,35.5c38,38.2,76.3,76.2,114.6,114.1c1.4,1.3,3.3,2.1,4.8,3c11.6-4.6,17.5-9.3,39-33
			c11.7-12.9,21.7-26.9,25.3-44.9c2.3,0.5,4.9,0.2,5.8,1.2c18.4,21.8,34.6,45.3,51.5,69.3c-3.3,4.3-5.8,8.2-8.9,11.3
			c-41.2,41.6-82.5,83.1-123.9,124.5c-2.6,2.6-6,4.4-8.6,6.2c-1.8-1.2-2.7-1.5-2.8-1.9c-4.1-21.3-17.3-36.9-32-51.7
			c-40.4-40.5-80.7-81.2-121.2-121.6C3930.9,3280.5,3915.2,3265.2,3889.7,3264.1z"/>
		<path d="M2041.8,651.5c-0.9-20.9,1.5-40.5,8.3-59.6c11.2-31.3,31.4-54,62.6-65.4c14.9-5.4,30.5-8.6,46.8-8.7
			c45.1-0.2,77.2,20.9,98.9,59.2c15.7,27.7,22.7,58,22.3,89.8c-0.2,13.9-0.1,28-2.1,41.8c-3.3,23.4-12.4,44.4-28.7,62.3
			c-20.5,22.5-46.1,33-75.8,34.6c-10.6,0.6-21.4,0.7-31.9-0.6c-29.4-3.7-52.1-19.2-69.1-42.9c-11.3-15.7-18.7-33.4-23.9-52.2
			C2043.8,690.4,2040.9,670.9,2041.8,651.5z M2220,681.6c2.5-19.6-2.7-38.5-7.3-57.1c-4-15.9-10.1-31.7-21.8-44.3
			c-14.9-16.3-38.3-20.3-58-10.6c-14.4,7.1-21.7,19.4-26.2,33.6c-13.4,42.4-4.3,82.9,12.3,122.3c4.4,10.5,12.3,19.1,21.6,25.9
			c13.9,10.3,29,12.6,45.1,5.2c14.2-6.5,23.3-17.4,28.4-31.8C2219.1,710.8,2221.8,696.5,2220,681.6z"/>
		<path class="st0" d="M1477.1,3811.3c0.6-1.2,1-2.8,1.9-3.4c17.4-9.8,25.5-26.8,32.5-44c18.8-46.2,37-92.6,55.4-138.9
			c4.4-11.1,8.4-22.4,13.4-33.3c6.6-14.4,8.5-29.3,6.5-44.8c-0.3-2.6-0.3-5.2-0.4-7.2c4.3-4.3,8-1.7,11.5-0.4
			c17.4,6.6,34.8,13.2,51.9,20.5c5.9,2.5,10.3,8.3,16.2,10.7c5.9,2.4,13.1,1.8,19.3,3.7c6.2,1.9,11.9,5.3,18.4,8.4
			c-2.1,2.5-3.1,4.6-4.7,5.4c-13.4,6.4-21.2,17.5-26.7,30.9c-9.6,23.3-19.8,46.4-29.5,69.7c-10.6,25.7-20.9,51.6-31.4,77.4
			c-0.5,1.2-1.3,2.4-1.7,3.6c-3.4,8.5-2.4,12.2,5.8,16c12.7,5.7,25.6,11.1,38.6,15.9c8.1,3,16.4,5.8,24.9,7c8.4,1.2,17,0.3,26.3,0.3
			c0,3,0.9,6-0.1,7.8c-13.9,23.4-28,46.6-41.9,69.6C1649,3883.4,1489.7,3819.1,1477.1,3811.3z"/>
		<path d="M4330,1333c1.1,18.8-6.5,40.7-19.8,60.3c-25.6,37.8-58.8,66.7-102.7,81.9c-57.6,19.9-108.3-0.4-138.8-51
			c-22-36.4-21.1-73.5-1.3-110.1c23.8-43.9,59.9-75.1,106.4-92.2c65.6-24,122.1,6.3,148.7,66.8C4328,1301.3,4329.4,1314.2,4330,1333
			z M4154.5,1430.2c0,0,2.7,0,5.3-0.5c3.9-0.8,7.8-1.7,11.5-3.1c33.7-12.5,62-32.8,84.4-60.9c8.3-10.3,15.7-21.3,20.7-33.8
			c4.1-10.5,3.9-20.8-0.2-31c-9.9-24.8-32.8-37.1-59.1-31.8c-4.5,0.9-9,2.2-13.2,4c-36.1,14.6-64.2,39.2-86.8,70.6
			c-5.9,8.3-8.2,17.9-11.9,27.1C4095.1,1396.3,4127.1,1431,4154.5,1430.2z"/>
		<path d="M1725.3,617.6c6.9-3.4,10.1-5.7,13.7-6.6c23.7-5.4,46.9-12.9,72.5-17.1c-0.3,4,0.3,6.9-0.8,8.8c-7.8,13.2-5.9,27.2-3,40.8
			c3.8,17.5,9,34.7,13.8,52c0.8,3.1,2.4,5.9,3.4,8.2c7.9,3.3,14.3,0.4,20.6-1.1c21.3-5.1,42.6-10.6,63.8-15.9
			c8.5-2.1,11.6-5.7,9.8-14.3c-3-14.3-7-28.4-10.6-42.5c-1-3.9-2.5-7.6-3.4-11.4c-2.7-12-8.4-22.3-17.3-30.9
			c-2.7-2.6-4.6-5.9-8-10.5c25.7-7.6,50.1-12.8,74.1-19.2c2.2-0.6,5,0.7,7.2,1c0.4,1.5,0.9,2.2,0.7,2.7c-9.2,21.8-3,43.1,2,64.3
			c7.1,29.7,14.8,59.3,22.3,88.9c5.7,22.6,10.8,45.3,17.4,67.6c4.5,15.3,11,30.2,28.8,38.5c-10.3,7.9-20.7,7.2-29.5,10.5
			c-8.7,3.2-18,4.4-27.1,6.5c-9.4,2.2-18.4,7.6-28.9,4.1c0-2.6-0.7-4.9,0.1-6.4c6.6-12.7,5.2-26,2.5-39
			c-4.2-20.2-9.5-40.1-14.5-60.1c-2.3-9-5.9-12-14-10.2c-27.8,6.1-55.6,12.6-81.9,20.9c-4.6,7.7-1.5,14.4-0.1,20.5
			c4.2,17.4,9.5,34.6,14,52c3.4,13.2,8.9,24.9,19.2,34.3c1.7,1.5,2,4.5,2.8,6.4c-1.5,1.7-2.2,3.3-3.3,3.5
			c-24.4,6.1-48.9,12.1-73.4,18c-1,0.2-2.4-1-3.5-1.5c-0.1-0.6-0.6-1.4-0.3-1.8c12-19,5.9-38.5,1.2-57.7
			c-10.7-43.9-21.8-87.8-32.8-131.6c-2.4-9.7-4.9-19.3-7.5-29C1750.9,643.9,1743.8,629.1,1725.3,617.6z"/>
		<path d="M3570.8,1027.7c0.5-1.8,0.5-2.9,0.9-3c18-6.3,29.2-19.7,38.6-35.5c29.9-50.3,60.1-100.4,90.5-150.4
			c7.2-11.8,10.7-24.2,9.7-37.9c-0.2-2.6,0-5.3,0-9.4c3.6,0.9,6.9,0.9,9.3,2.3c28,16.7,55.9,33.5,83.6,50.6
			c14.9,9.2,27.6,21,38.5,34.5c23.1,28.6,27.4,60.9,17.6,95.8c-7.6,27.3-20.9,51.7-38.1,74c-7.7,10-16.2,19.6-25.7,27.8
			c-21.5,18.6-46.7,28.8-75.3,25.1c-19.7-2.5-39-8-56.6-18.3c-17.2-10.1-34.5-20-51.7-30c-12.1-7-24.1-14.1-36.1-21.3
			C3574,1030.8,3572.3,1029,3570.8,1027.7z M3652.4,1026.7c10.1,12.1,22.4,17.2,34.5,22.6c27.6,12.3,50.3,3.4,68.7-15.7
			c17.6-18.3,31.5-39.5,42-62.7c6.4-14,11.4-28.4,11.5-44.1c0.1-11-2-21.2-9.2-29.8c-12.5-15-27.5-26.6-48.2-35.3
			c-1.2,2.2-2.4,4.6-3.8,6.9C3716.4,920.9,3684.8,973.1,3652.4,1026.7z"/>
		<path d="M953,1390.5c-25.7,1.7-48.7-6.9-69.8-20.1c-35-21.9-63.2-50.8-80-89.1c-19.9-45.4-12.5-90.6,21.9-125.1
			c9.3-9.3,20.2-17.3,31.3-24.5c18.7-12.1,40-12.9,61.5-11.8c24.9,1.4,46.3,12.4,65.7,26.3c33,23.6,59.9,53.2,73.2,92.2
			c11.6,34.1,9.9,67.7-10.9,99.1c-14.5,21.8-33.8,37.1-57.9,46.9c-3.7,1.5-7.4,3.2-11.3,3.8C968.9,1389.4,960.9,1389.8,953,1390.5z
			 M960.3,1342.7c37,1.5,64.1-36.8,49.4-70.2c-19.7-45.1-52.9-77.4-97.4-98.4c-15.7-7.4-30.1-5.5-43.2,4.4
			c-16.6,12.5-31.7,29.2-21.5,58.7c2.6,7.5,5.5,15.1,9.5,21.9c16.9,28.5,39.5,51.9,67,70.1C935.2,1336.5,947.2,1342.8,960.3,1342.7z
			"/>
		<path d="M3024.9,546.8c10.2,1.6,16.7,2.2,23.1,3.6c20.1,4.4,40.1,9,60.2,13.6c1.1,0.2,1.8,1.9,3.1,3.3c-2.5,6.2-7,12.7-7.2,19.2
			c-0.4,13.2,1.4,26.5,2.8,39.7c1,9.9,3,19.7,4.3,29.6c5.6,43.5,11.1,87,16.6,130.5c1.7,13.8,1.8,27.9,7.3,41.1
			c2.6,6.1,5.4,12.1,8,18.2c1.7,4.1-1.6,8.4-5.9,7.7c-7.2-1.3-14.3-2.9-21.5-4.3c-11.7-2.4-23.4-4.8-35.1-7
			c-6.5-1.2-12.9-2.4-18-7.7c0.7-2.2,0.7-4.6,1.9-5.7c8-7.6,9.5-17.4,9-27.5c-0.5-11.3-2-22.5-3.2-33.8c-0.8-7.5-4.8-12.1-12.3-13.8
			c-22-5-44-10.1-65.9-15.1c-6-1.4-10.6,1.3-13.7,5.9c-4.8,7.2-9.1,14.6-13.3,22.2c-12.5,23-12.4,23-12.7,45.2
			c-26-1-50.3-10.5-77-13.8c1.6-3.9,1.9-7.3,3.5-8.3c13.5-8.3,22.1-21,30.3-33.9c35-54.9,69.6-110.1,104.3-165.2
			C3021.4,578.2,3028.5,565.4,3024.9,546.8z M3059,710.9c5.8-5.4,4.9-10.9,4.7-16.1c-0.2-7.3-0.6-14.6-1.3-21.8
			c-1.6-17.8-3.4-35.5-5.4-53.2c-0.2-1.5-2.5-3.5-4.1-3.7c-1.6-0.3-4.3,0.9-5,2.3c-13.3,23.7-26.4,47.4-39.4,71.3
			c-3,5.5-0.7,11.1,5.3,12.3C3028.6,705.1,3043.5,707.8,3059,710.9z"/>
		<path d="M4315.6,1821.2c-2.8-6.8-5.4-12.1-7.2-17.6c-6.2-18.9-12.3-37.8-18.1-56.8c-0.6-1.9,1.2-4.4,1.9-6.9
			c22.8,12.1,46.7,13.3,70.3,14.9c35.1,2.4,70.3,3.8,105.4,5.9c23.2,1.4,46.3,3,69.5,4.9c15.2,1.2,29-2.3,41-11.9
			c9.1,7.4,10.1,17.5,12.5,27.1c2.3,9,5.7,17.7,8.1,26.7c2.5,9.4,9,17.9,6.5,29.3c-6.4,1-13.4,0.7-19,3.3c-8.3,4-15.8,9.8-23.3,15.2
			c-47.9,34.8-95.8,69.6-143.6,104.6c-16.1,11.8-32.3,23.5-43.2,40.8c-0.5,0.8-2.3,0.9-5.5,2.1c-0.5-0.9-1.6-2.5-2.2-4.3
			c-7.6-23.3-15.2-46.7-22.6-70.1c-0.3-1,0.8-2.4,1.2-3.6c1.1-0.6,2.6-2,3.3-1.7c11.7,5.1,22.1,0.9,31.7-5.2
			c10.7-6.7,20.8-14.3,31.2-21.5c4.3-3,6.2-7.2,4.6-12.2c-7.6-24.1-15.3-48.1-23.1-72c-0.6-1.8-2.3-3.2-4.4-6c-15.8,0-32.4-0.1-49,0
			c-6.9,0.1-13,2.4-17.9,7.5C4321.6,1816.1,4319.1,1818,4315.6,1821.2z M4537.1,1811.8c-2.4-2.1-3.8-4.3-5.1-4.3
			c-28.5-0.5-57-0.9-85.5-0.9c-2.7,0-5.4,2.7-8,4.2c4.9,16.2,9.4,31.4,14.2,46.6c1.9,6.1,6.7,7.7,12.5,4.5c0.6-0.3,1.2-0.6,1.7-1
			c20.4-13.7,40.7-27.3,61-41.1C4530.9,1817.6,4533.6,1814.8,4537.1,1811.8z"/>
		<path d="M2309.3,502.9c27.5-1.1,52.9-6.3,80.2-0.7c-1.2,4.1-2,7.1-2.9,10c-2.6,8.7-0.9,17,1.8,25.4c9.5,29,19,58.1,28.1,87.2
			c8.5,27.2,16.7,54.6,25,81.9c0.7,2.4,2,4.6,2.8,6.5c5.6,1.2,6.6-2.6,7.4-5.5c4.9-16.6,9.7-33.2,14.3-49.8
			c10.2-36.5,20.4-73,30.4-109.6c2.1-7.7,4.2-15.5,5-23.4c0.9-7.8,0.2-15.7,0.2-22.9c1.9-1.4,3-2.8,4-2.8
			c22.6-0.1,45.1-0.1,69.2-0.1c-1.2,4.1-1.3,8.3-3.3,11c-11.9,15.7-18,33.9-23.5,52.5c-5.6,19.1-12,38-18.2,57
			c-10.4,32.2-20.9,64.4-31.3,96.7c-5.5,17.1-11,34.2-16.2,51.4c-1.8,6-5.7,9.4-11.3,9.6c-16.6,0.4-33.3,0.4-49.9-0.1
			c-5.8-0.1-9.2-4.2-11.2-9.9c-4.8-13.8-10.1-27.3-15-41.1c-13.8-38.8-27.6-77.6-41.2-116.5c-7-20.1-13.6-40.3-20.7-60.3
			c-4.9-13.9-11.2-27-21-38.3C2311.1,509.6,2310.9,507.4,2309.3,502.9z"/>
		<path d="M962.2,1029.5c1.5-2.8,2-5.2,3.4-6.1c19.6-12.3,36.8-28.2,58.2-40.4c2,3.9,3.9,6.4,4.8,9.3c3.1,9.5,10.3,15.4,17.7,21.1
			c31.6,24.4,63.4,48.6,95.1,73c13.7,10.5,27.3,21.3,41.2,31.6c2.9,2.1,6.7,3,12.1,5.2c-0.9-6.5-0.8-11.2-2.3-15.3
			c-12.5-35.1-25.2-70.1-37.9-105.1c-5.6-15.6-11.8-31.1-16.6-47c-4.3-14.1-9.8-27.3-20.9-37.1c1.1-2.9,1.2-5.4,2.5-6.4
			c16.5-12.3,33.2-24.5,49.9-36.4c1.3-0.9,3.7-0.4,5.4-0.5c1.1,1.3,2.6,2.3,2.6,3.3c-0.7,19,4.8,36.7,10.3,54.5
			c7.7,24.7,15,49.6,22.7,74.3c6.5,20.9,13.6,41.7,20.1,62.6c7.9,25.3,15.4,50.8,23.1,76.2c2,6.6,0.5,11.5-5.2,15.6
			c-14.5,10.5-28.9,21.2-44.3,32.5c-14.5-10.1-28.6-19.8-42.6-29.9c-52.5-37.6-104.9-75.4-157.3-113.1c-9.8-7-20.1-12.9-31.6-16.9
			C969.2,1033.4,966,1031.4,962.2,1029.5z"/>
		<path d="M3516.7,815.5c28.4,13.5,53.3,30.5,86.1,30.5c-4.6,18.9-14.1,34-21.1,50.1c-0.6,1.3-3.3,1.7-5.9,2.9
			c-2.1-2.5-3.9-5.2-6.2-7.4c-4.7-4.6-9-10.4-14.7-13.1c-17.8-8.6-35.5-17.8-54.8-23.5c-9,9.9-11.9,22.5-17.5,33.7
			c-5.6,11.3-10.6,22.9-15.8,34.4c-2.7,6-1.6,10.3,3.9,13.6c3.9,2.3,8.5,3.7,12.7,5.6c13.3,5.9,26.9,11.3,39.8,18.1
			c11.8,6.2,23.7,8.2,36.6,5.7c2.5-0.5,5.1-0.1,7.5-0.1c0.7,2.2,1.8,3.8,1.3,4.6c-6,11-12.1,22-18.6,32.8c-2.3,3.8-5.8,6.9-9.1,10.8
			c-19.4-8.6-38.2-16.8-56.8-25.1c-29.7-13.3-59.4-26.6-89.1-40c-2.4-1.1-4.9-2.1-7.2-3.4c-2.6-1.5-2.9-6.7-0.6-8.8
			c0.5-0.5,0.8-1.2,1.4-1.4c14.7-6.4,21-19.6,27.1-33.1c18.4-41.3,36.9-82.5,55.4-123.7c4.6-10.3,9.6-20.4,14-30.8
			c7.5-17.8,15.3-35.6,6.4-54.6c3.8-3.8,6.7-2.7,9.9-1.3c41.2,18.4,82.5,36.7,123.6,55.2c6.6,3,12.8,6.7,19.7,10.4
			c-1,5.2-1.5,9.8-2.9,14.1c-3.5,11.2-7.4,22.3-11.6,34.9c-3.2-2-6.1-2.8-7.2-4.6c-5.5-9.9-14-15.8-23.9-20.3
			c-15.7-7.1-31.4-14.3-47.3-20.9c-8.8-3.6-11.2-2.1-15.3,6.8c-5.6,12-11.1,24.2-16.4,36.3C3519,806.8,3518.4,810.1,3516.7,815.5z"
			/>
		<path d="M645,1556.2c2.2-0.8,3.8-2,4.5-1.7c16.4,8.3,33.6,15,49.3,26.3c-1.8,2.2-2.7,4.2-4.2,4.8c-9.2,3.6-15.6,10-20.1,18.5
			c-9,17-17.8,34-26.8,51.4c3.7,3.4,6.1,6.9,9.4,8.7c21.5,11.6,43.3,22.9,63.8,33.7c8.4-2.5,10.4-8.7,13.1-13.7
			c7.4-13.4,14.3-27,21-40.7c3.8-7.7,6.8-15.7,10.4-23.6c2.3-5.2,2.1-10.2,0-15.4c-0.9-2.2-1-4.8-1.4-6.8c1.7-0.8,2.4-1.5,2.7-1.3
			c5.1,2.8,10.8,5,15.2,8.7c8,6.8,19,9.8,25.4,19.9c-25.3,50.1-50.5,100.2-76.1,150.9c-2.5-1.4-4.8-2-5.4-3.3
			c-6.8-14.9-19.7-23.2-33.4-30.1c-53.4-26.8-106.9-53.4-160.5-79.7c-13.2-6.5-26.8-12.2-42-5.1c-1.3,0.6-4.8-0.3-5.2-1.3
			c-0.9-2.1-1.1-5.2-0.2-7.2c5.1-10.8,10.6-21.4,16.1-32c16.1-31.3,32.1-62.6,48.3-93.8c3-5.8,6.4-11.4,10.1-17.9
			c17,6.4,32.9,12.3,50,18.8c-1.9,2.5-3,5.2-4.9,6.1c-11.5,5.5-18.3,15.2-23.9,25.9c-8.5,16.4-16.9,33-25.5,49.9
			c1.5,2.4,2.4,5.3,4.4,6.5c15.7,9.8,32.2,18,49.5,25.5c12.3-11.4,16.1-26.6,23.3-39.8C639.1,1585,645.5,1571.4,645,1556.2z"/>
		<path d="M1425.3,1048.9c-1-3.8-2.6-6.6-1.9-8.4c4.8-13.2-0.1-25.1-5.6-36.3c-9.9-20.3-21-40-31.6-60c-3.9-7.3-9.5-12.7-16.7-16.8
			c-38.1-21.8-76-44-114.4-65.1c-11.5-6.3-24.6-9.5-36.9-14.1c0.4-1.2,0.4-3.1,1.2-3.6c24.5-12.9,48.3-27.2,74.3-38.8
			c3.7,6.7,5.9,13.1,10.1,17.7c4.4,4.7,10.7,7.8,16.3,11.4c16.1,10.6,32.3,21.1,48.5,31.5c2.6,1.7,5.8,2.5,9.8,4.2
			c1.4-4.7,3.2-8.3,3.4-12c0.6-12.6,0.6-25.3,0.9-37.9c0.2-6-0.6-12.4,1.2-17.8c4.3-12.8,0.9-23.4-6.7-33.5
			c-1.1-1.5-1.5-3.4-2.2-5.1c11.8-10.1,56.4-34.3,74.5-40.4c2.6,3.7-0.6,6.2-1.9,8.9c-7.2,14.6-9.1,30.3-10,46.4
			c-1.7,28.5-4.4,56.9-6.4,85.4c-0.9,12.6-1.1,25.2-1.2,37.9c0,3.2,0.7,6.8,2.2,9.6c12,22.2,24.1,44.3,36.4,66.4
			c5.9,10.7,13.6,19.6,25.4,24.5c1.6,0.7,2.6,2.8,3.7,4.1c-0.4,1.6-0.3,3.6-1,4C1473.6,1024.5,1450.3,1036.8,1425.3,1048.9z"/>
		<path d="M1665.7,633.4c11.3,18.2,15,39.5,24.2,58.5c1,2,0.1,5,0.1,9.4c-5.9-2.8-10.6-4.5-14.8-7.2c-7.8-5-16.3-6.5-24.9-5
			c-33.7,6-51.9,23.5-54.4,56.3c-1.4,18.3,2.2,36,7.5,53.1c5.2,17.1,13.4,33.2,23.6,48.2c10.9,16,25.3,26.9,43.3,33.7
			c6.6,2.5,13.1,3.1,19.5,1.5c25.4-6.4,45-19.5,51.3-47c0.3-1.2,1.2-2.2,2-3.5c4.3-1.3,5.8,1.9,6.8,4.9c6.6,20.8,13,41.7,19.8,63.7
			c-4.7,1.5-8.4,2.4-11.9,3.8c-12.8,5.5-25.5,11.3-38.2,17c-21.9,9.8-45.1,12.5-68.3,8.7c-25.6-4.1-47-17.9-64.2-37.5
			c-22.8-26-37.2-56.1-45.1-89.9c-4.3-18.5-5.9-37.1-3.9-55.4c4.6-42,25.6-73.6,65.3-90.6c9.7-4.2,20.3-6.2,30.3-9.8
			C1643.7,642.7,1653.3,638.4,1665.7,633.4z"/>
		<path d="M4441.3,1545.8c-51.7,31-101.2,60.7-150.8,90.5c-0.6,0.3-1.1,0.7-1.7,1.1c-22.5,14.1-25.4,17.2-37.3,41
			c-12.1-9.3-16-23.9-24-35.5c-7.9-11.3-14.3-23.7-22-36.5c3.2-1.5,5.6-3.8,7.6-3.5c17,2.6,31-3.9,45-12.4
			c36.7-22.6,73.8-44.8,110.7-67.1c11.9-7.2,24.1-14.1,35.9-21.5c6.3-4,7.1-8.8,2.5-15.1c-6.7-9.1-13.6-18-20.9-26.6
			c-6.6-7.6-14.8-13.1-24.7-16.2c-4.1-1.3-4.9-8.1-1.5-9.8c14.4-6.8,28.8-13.4,43.4-19.7c2.8-1.2,6.5-0.2,11.1-0.2
			c33.7,56.1,67.5,112.4,100.9,168c-0.2,7.1-4.5,10.4-9,13.2c-13.6,8.7-23.9,22.3-41.8,28.1
			C4470.9,1592.8,4458.2,1569.6,4441.3,1545.8z"/>
		<path d="M460.5,1865.1c-12.8,26.5-16.1,51.9-4.1,79.4c-4.2,0.3-7,1.2-9,0.4c-12.8-5.4-25.5-11.1-38.1-17
			c-9.3-4.3-11.5-9.1-8.5-19.3c8.7-29.3,17.6-58.6,26.5-87.9c7.9-26.1,15.9-52.1,23.8-78.2c0.8-2.5,1.4-5.2,2.4-7.6
			c2.8-6.3,7.7-8.9,14.5-7.6c3.3,0.6,6.4,2,9.6,2.6c8.5,1.5,17,2.8,25.5,4.2c4.4,0.7,10.1-0.2,11.7,5.4c1.3,4.5-2.5,7.4-5.7,9.7
			c-11.2,8.2-17.7,19.7-23.5,31.7c-1.2,2.4-2.1,4.9-3,7.4c-6.9,20.6-6.5,21.1,14,27.7c49.4,15.7,98.6,31.7,148,47.3
			c9.5,3,19.4,4.6,29.1,6.8c5.5,1.2,10.3-0.5,15.4-2.7c3.2-1.4,7.2-1,12.5-1.5c-7.3,25.3-13.9,48.7-20.8,72.1
			c-0.7,2.2-2.8,4-5.2,7.1c-2.9-3.4-5-5.7-6.9-8.2c-6.2-8.3-14.1-13.8-24.1-16.8c-27.3-8.3-54.6-16.8-81.9-25.3
			c-31.1-9.7-62.1-19.5-93.1-29.1C467.2,1865.1,464.4,1865.4,460.5,1865.1z"/>
		<path d="M3225.2,968.9c-2.6-12.6-0.9-45.6,3.4-63.6c2.4,0.9,5,1.4,6.9,2.7c3.8,2.6,7,6.1,10.9,8.5c16.2,10.2,30,2.5,36.3-8.1
			c6.4-10.8,12.2-22.2,16.3-34c14.8-42,28.7-84.3,43-126.4c6.2-18.2,12-36.5,19-54.4c6.6-16.9,7.5-33.4,0.9-51.6
			c2.7-0.6,5.3-2,7.2-1.4c23.9,7.9,47.7,16.1,71.4,24.4c1,0.3,1.6,1.9,2.9,3.7c-2,2.3-3.8,5.3-6.4,7c-11.3,7.4-16.8,18.9-21.5,30.6
			c-6.6,16.7-11.7,33.9-17.7,50.8c-9.8,28.2-19.9,56.3-29.7,84.5c-6.7,19.4-12.7,39.1-19.7,58.4c-4.5,12.5-9.7,24.7-15.6,36.6
			c-3.2,6.4-8.2,12-12.9,17.6c-8.7,10.3-20.2,14.8-33.6,14.7c-7.3,0-14.6,0-22,0C3251.3,968.9,3238.2,968.9,3225.2,968.9z"/>
		<path d="M826.5,1593.8c-2.3-4.1-4.1-6.7-5.2-9.6c-4.2-11-11.8-19-21.1-25.9c-34.9-25.6-69.7-51.3-104.5-76.9
			c-11.8-8.7-23.9-17-35.3-26.1c-15.4-12.3-32-21.2-53.3-21.5c0.7-3.6,0.5-6.5,1.8-8.2c14.3-19.2,28.9-38.2,43.5-57.1
			c1-1.3,3.3-1.7,4.9-2.4c1.4,1,3.1,1.7,3.3,2.6c3,13.7,11,24,21.5,32.5c15.6,12.5,31.3,24.8,47.1,37c31,24,62.2,47.9,93.2,72
			c4.3,3.4,8.5,6.2,15.7,6.3c20.2-26.1,43.2-51.3,41.1-89.3c8.9,0.5,11.8,7.3,16.5,11.4c4.5,3.9,9.1,7.8,13.3,12
			c4.6,4.6,11.1,7.6,13.3,15.9c-7.9,15.2-20.5,28.2-30.9,42.6c-10.2,14-20,28.3-30.9,41.7C849.6,1564.7,840.8,1580.4,826.5,1593.8z"
			/>
		<path class="st0" d="M3682.2,3282.2c12.9-12.1,25.5-20.1,38.5-29.6c5.1,3,10,6.2,15.2,8.8c8.9,4.5,15.9,1.2,17.5-9
			c1.1-7.1,0.2-14.4,0.2-23.6c8.5-9.3,20.6-17.1,33.2-26.2c0.9,3.1,1.9,4.8,1.7,6.4c-3.8,27-7.6,54-11.7,80.9
			c-1.5,10-4.9,12.1-15.1,10.9c-3.9-0.5-7.9-1.2-11.7-2.3c-15.3-4.2-30.6-8.9-46-12.9C3697.7,3284,3691.2,3283.6,3682.2,3282.2z"/>
		<path class="st0" d="M4078.9,3019.8c-2.7-26.4-5.8-47.4-21.7-64.7c16-21.2,31.6-41.7,49.2-65c1.5,3.3,2.9,5,2.9,6.7
			c0.1,18.6,0.4,37.2,3.6,55.6c2.4,13.9-1.6,26.1-10.9,36.9C4094.9,2997.8,4088.6,3007,4078.9,3019.8z"/>
		<path class="st0" d="M3211.6,3531.6c-1.1,3-1.5,5.7-2.9,7.8c-11.9,17.7-24.2,35.1-36,52.8c-4.6,7-10.3,11.8-18.5,14.1
			c-11.5,3.2-22.7,7.3-34.2,10.7c-1.4,0.4-3.4-1.1-6-2c9.4-18.6,22.5-35.5,17-58.6c25.4-8.7,49.8-17.2,74.3-25.5
			C3206.9,3530.4,3209,3531.3,3211.6,3531.6z"/>
		<path d="M449.6,1525.8c8.3-12.3,11.6-24.4,21.3-36.8c2.8,8.8,4.3,14.3,6.4,19.5c5.9,14.7,12.2,29.3,18.3,43.9
			c1.3,3,2.6,6.1,3.5,9.3c1.8,7.2-0.5,11.4-7.9,13.4c-12.2,3.2-24.6,5.5-36.7,8.7c-10.2,2.7-20.1,6.5-30.2,9.4
			c-1.4,0.4-3.6-1.1-5-2.3c-0.7-0.6-0.9-2.7-0.4-3.7c5.4-10.5,10.9-21,17-32.4c8.6,2.9,15.9,7.6,24.8,6.2c9.8-1.6,12.8-6,9.3-14.8
			C466.3,1537.4,460.9,1530.3,449.6,1525.8z"/>
		<path d="M1292.1,732.9c21.1-15.6,38.5-24.4,48.6-24.9c0,1.8,0.6,3.9-0.1,5.4c-7.9,16.7-16.6,33.1-24,50.1
			c-5.4,12.4-17,15.8-27.3,21.4c-0.7,0.4-2.9-0.4-3.4-1.3c-0.9-1.5-1.9-3.8-1.4-5.2c2.5-7.5,5.2-14.9,8.4-22.1
			C1296.1,748.6,1296.6,741,1292.1,732.9z"/>
		<path d="M3027.1,522.7c16.7-12,34.2-17.3,42.1-35c15.8,2.9,31.4,4.6,46.4,9.4c1.5,0.5,2.5,2.6,4.6,4.9c-2.2,1.9-3.8,4-5.9,4.9
			c-15,6.7-30.6,12.5-45.2,20C3054.9,534.2,3042.9,531.1,3027.1,522.7z"/>
	</g>
</g>
<g id="doč">
	<g id="Vrstva_5_kopie_2" class="st1">
		<ellipse class="st2" cx="2516.5" cy="2229.4" rx="2450.8" ry="2059.8"/>
	</g>
</g>
<g id="znak_1_">
	<g id="znak">
		<path class="st3" d="M3197.1,1044.5l-339.9,2250.7l-340.6-2364l-340.6,2364l-340-2250.7l-335.8,2223.1
			c677.6,382.8,1355.1,382.8,2032.6,0L3197.1,1044.5z"/>
	</g>
	<g id="panáček">
		<path class="st4" d="M3670.9,1595.5c-6-43.9-25.3-82.4-57.9-113.5c-27.5-26.3-59-42.7-97.7-43.8c-25.7-0.7-50.1,3.6-73.5,14.8
			c-29.9,14.3-55.1,34.6-78.3,57.8c-7.5,7.5-15.5,14.5-24.1,20.7c-33.6,24.3-71.7,40.5-108.8,58.5c-42.5,20.6-87.1,36.3-130.9,53.8
			c-17.2,6.9-35.4,11.3-53.3,16.5c-14,4-28.2,7.6-42.4,11.2c-16.7,4.2-33.4,8.7-50.3,12.1c-26.1,5.2-52.3,9.7-78.5,14.3
			c-3.7,0.6-7.6,0.1-12.8,0.1c1.8-4.9,2.6-8.9,4.5-12.1c11.4-18.8,22.6-37.7,34.7-56c19.5-29.5,39.9-58.2,65.5-82.9
			c5.2-5,9.4-11.2,13.7-17.1c16.8-22.7,28.1-48.4,39.1-74c24-55.9,38.2-114.8,49.3-174.4c0.6-3.3,0.8-6.6,0.8-10
			c-0.3-23.9,3.5-47.6,1.2-71.8c-1.5-15.5-4.2-30.4-10.3-44.4c-8.1-18.5-20.9-32.9-42.1-36c-18-2.6-35.7-0.8-52.9,6
			c-32.5,12.9-61.2,32-88.9,53c-43.1,32.7-81.7,70.4-120.2,108.2c-42.5,41.6-81.3,86.3-115,135.3c-17.3,25.2-34.9,50.2-52.3,75.3
			c-1.5,2.2-2.9,4.5-4.2,6.8c-19.9,36.1-40.6,71.9-59.5,108.6c-17.4,33.7-32.9,68.3-49.3,102.5c-2.6,5.3-5.5,10.5-8,15.3
			c-14.9,1.8-28.7,3.1-42.5,5.2c-32.9,5-65.7,10.3-98.5,15.7c-17.7,2.9-35.5,5.8-53,9.4c-17.6,3.6-34.9,8.2-52.4,12.4
			c-12.3,3-24.5,5.9-36.7,9.2c-23.7,6.4-47.6,12.2-70.9,19.9c-27.1,9-53.8,19.2-80.3,29.8c-29,11.6-58.2,22.8-86.1,36.7
			c-31.5,15.7-62,33.7-92.2,51.8c-38.3,23-74.1,49.7-109,77.5c-22.9,18.3-45.7,36.7-64.1,59.9c-2.5,3.1-5.7,5.6-8.6,8.4
			c-13.9,13.4-27.8,26.7-41.7,40.2c-4.8,4.6-9.4,9.4-14.2,14c-12.4,12-25.5,23.5-37.3,36.1c-23.3,24.8-39.3,54.2-45.5,87.5
			c-8.9,48.2,2.1,92.6,31.8,131.9c15.4,20.5,35.6,35.3,56.4,50.1c27.7,19.7,58.7,24.9,90.8,24.6c33.4-0.3,63.8-12.2,90.6-32.5
			c21.9-16.6,41-36.1,55.9-59.3c6.9-10.7,15-20.3,23.9-29.4c26.6-27.2,54.4-53,84.8-75.9c29.2-22,56.4-46.6,88.7-64.3
			c30.9-17,61.4-34.6,94.4-47.3c26-10.1,52-20.4,78.3-29.5c18.8-6.5,38.2-11.5,57.5-16.3c11.4-2.8,23.2-4,38.9-6.7
			c-2.7,8.7-3.8,13.8-5.9,18.5c-16.6,37.9-36.4,74.1-59.4,108.4c-29,43.2-60.9,84.2-96.2,122.4c-11.3,12.2-22.8,24.2-33.8,36.8
			c-23.8,27.2-51.9,49.7-78,74.4c-0.5,0.5-1.1,0.8-1.6,1.2c-11.6,8.9-23.6,17.3-34.8,26.8c-42.2,35.9-86.9,68.4-133.6,98.1
			c-34.3,21.8-69.7,41.4-107.5,56.5c-15.4,6.2-31,11.8-46.3,18.3c-30.7,12.9-61.1,26.3-91.8,39.2c-14.1,5.9-29.2,9.8-42.6,17.1
			c-24,13-50.3,17.7-76.3,22.2c-30.4,5.3-57.5,16.7-81.2,35.6c-41,32.7-66.9,75.1-78.6,126.4c-7.1,31.1-7.4,61.9,0.4,92.8
			c11,43.2,45.8,84.6,106.9,90.5c15.4,1.5,30.4,2.4,45.7,0.3c9.8-1.4,20.3,0.4,29.8-1.9c20-4.7,40.1-10,59.4-17.1
			c41.2-15.1,81.7-31.9,122.8-47.2c42.3-15.9,85-30.8,127.4-46.3c51.3-18.7,102.7-37,153.6-56.5c45.3-17.4,89.8-36.6,132.2-60.7
			c45.5-25.8,85.7-58.6,125.8-91.4c27.3-22.3,52.5-47.2,78.5-71c7.9-7.2,15.3-14.9,23.5-21.6c34.4-28.5,69.7-55.7,107.4-79.8
			c42.1-26.9,84.8-52.9,130.3-73.7c41.7-19,85.3-30.1,131.5-28.2c3.3,0.1,6.8,0,9.9,0.9c18.6,5.8,36,13.6,49.8,28.1
			c11.6,12.2,21.1,25.8,28.3,40.9c13.4,27.9,20.1,57.7,24.8,88.1c1.8,11.8,2.1,23.9,4.2,35.7c1.4,8.1,1,15.7-0.2,23.7
			c-6.4,41.8-7.6,83.4,4.5,124.7c10.9,37.1,34.5,64.9,66.4,84.4c21,12.8,46,18,71.2,16.1c20.6-1.6,40.7-6.7,59.9-14.6
			c36.1-14.7,65-38.6,88.9-69c26.4-33.5,40.8-72.1,44.3-113.8c2.4-29,2.6-58.5-1.9-87.8c-2.7-17.7-3.7-35.7-5.5-53.5
			c-0.3-3.3-0.7-6.6-1.4-9.9c-9.1-44.3-17.9-88.7-32.4-131.8c-21.3-63.2-52.2-120.9-95.9-171.5c-12.2-14.1-25.2-27.5-41.9-36.6
			c-5.2-2.8-9.8-6.9-14.8-10.2c-12.9-8.3-25.4-17.1-38.8-24.3c-20.5-11.1-42.1-19.4-64.5-26.1c-19.9-6-40.1-9.7-60.4-12.4
			c-37.2-4.9-74.4-2.2-111.3,4c-4.6,0.8-9.3,1.5-13.9,1.3c-12.7-0.5-25.2,0.4-37.5,3.7c-2.7,0.7-5.9-0.2-8.9-0.4
			c0.1-2.7-0.1-4.1,0.3-5.2c9.1-22.9,17.7-45.9,24.3-69.6c3.2-11.5,7.9-22.6,11.8-33.9c2-5.7,6.2-8.3,12-9
			c9.2-1.1,18.4-2.8,27.6-3.5c32.5-2.4,65.2-2.5,97.2-9.9c2.6-0.6,5.3-0.2,8-0.5c15.2-1.9,30.3-3.9,45.5-5.9c3.9-0.5,7.8-1.8,11.8-2
			c26.7-1,52.4-8.7,78.7-12.7c17.7-2.6,35.1-7.5,52.6-11.2c4.5-0.9,9.3-1,13.9-1.6c5.9-0.8,11.9-1.5,17.7-2.9
			c23.2-5.8,46.3-12,69.5-17.8c42.7-10.6,83.9-26,125.3-40.6c39-13.7,75.9-32.4,113.2-49.7c51.4-23.8,100.7-51.5,148.6-81.7
			c11.3-7.1,22.9-13.6,35.4-18.2c16.3-6.1,31.3-14.5,45.6-24.5C3657.7,1726.6,3680.7,1667.4,3670.9,1595.5z M3642.1,1661.2
			c-3.8,37.6-24.8,63.6-56.7,81.8c-4,2.3-8.2,4.5-12.6,6c-23.5,8.1-44.3,21.2-65.3,34.1c-44.8,27.6-91.7,51.2-139.5,73.1
			c-42.9,19.6-86.6,37.5-131.2,53c-21.3,7.4-43.1,13.8-64.8,20c-24.9,7.1-50,13.9-75.1,20.1c-20,5-40.2,9.1-60.3,13.2
			c-16.3,3.3-32.6,6.2-49,9.1c-25.5,4.7-50.9,10.1-76.6,13.7c-29,4.1-58.2,6.7-87.2,10c-8.6,1-17.2,2.2-25.8,3
			c-19.2,1.8-38.4,3.5-57.7,5c-12.6,1-25.2,1.8-37.8,2.5c-10.4,0.6-17.4,5.7-21.2,15.4c-3.7,9.3-7.8,18.4-11.3,27.7
			c-26.9,73-53.7,146-80.4,219c-1.3,3.7-1.9,7.7-2.1,11.6c-0.3,4.4,3.5,7.4,8,6.6c8.5-1.5,17-3,25.5-4.9
			c18.8-4.3,37.5-9.1,56.3-13.1c18.2-3.8,36.5-7.2,54.9-9.9c20.4-3,40.9-6.1,61.4-7.3c29.9-1.7,59.7-2.1,89.5,4
			c37.1,7.6,71.1,21.4,102.5,42.1c25.9,17.1,47,39.3,65.7,63.7c26.2,34.1,43.8,72.7,59,112.7c13.8,36.3,22.5,73.9,29.8,111.7
			c6.8,35.3,12.2,70.9,13,107.1c-0.7,17.3-0.3,34.7-2.2,51.9c-5.4,48.8-28.7,86.3-71.6,111.3c-23.6,13.7-48.8,17.4-75.2,13.1
			c-19.2-3.2-31.9-15.7-40-32.9c-11.2-23.6-12.2-48.8-10.5-74.3c0.9-14.6,3.6-29.2,3.7-43.8c0.2-15.9-1.5-31.9-2.5-47.8
			c-1.5-22-7.1-43.2-11.8-64.7c-5.7-25.6-15.4-49.5-27.3-72.6c-1.5-2.9-2.5-6.2-4.2-9c-24.5-38.6-55.9-69.2-100.1-84.5
			c-2.5-0.9-5-2.1-7.5-2.6c-24.9-4.2-50-9.6-75.3-5.9c-18.3,2.6-36.5,5.9-54.6,11.1c-37.9,11-73.6,26.9-108.3,45.1
			c-46.6,24.5-91,52.6-133.8,83.4c-30.9,22.2-60.6,45.8-88.6,71.4c-32.9,30.1-65.3,60.8-98.7,90.3c-37.5,33.1-77.3,63.4-123.1,84.3
			c-33.8,15.5-68.1,30-102.7,43.7c-39.5,15.7-79.5,30.1-119.5,44.7c-28.7,10.5-57.8,19.9-86.5,30.5c-46.1,17-92,34.5-137.8,52
			c-21.7,8.3-42.8,18.5-64.8,25.9c-29.6,9.9-59.7,18.9-91.6,16.8c-15.6-1-30.2-4.8-41.8-16.2c-8.8-8.7-14.6-19-15.9-31.5
			c-4.7-44.3,5.2-84.6,33.1-119.9c14.4-18.2,32.8-31.3,54.5-39.1c12.4-4.5,25.7-7.7,38.8-8.7c15-1.1,28.7-6.1,42.5-10.3
			c23.4-7.2,46.4-16.1,69.1-25.4c43.1-17.5,85.9-35.9,128.9-53.6c43.2-17.7,84.6-39,124.3-63.4c63.2-38.8,121.1-84.5,176.9-133.2
			c41.2-36,80.2-74.2,116.8-114.7c48.7-53.9,93.9-110.8,131.4-173.2c21.9-36.5,41.2-74.5,56-114.6c11.3-30.5,23.5-60.8,35.3-91.1
			c1-2.5,2-4.9,2.7-7.5c0.8-3.1-2-7.1-5.3-7.1c-5.3,0.1-10.6,0.5-15.7,1.5c-25.5,4.8-50.9,9.7-76.3,14.7
			c-15.6,3.1-31.3,6.2-46.8,9.9s-30.8,8.4-46.2,12.2c-30.4,7.5-59.7,18.3-88.9,29.2c-69,25.7-132.6,61.7-192.9,103.7
			c-29.5,20.6-57.3,43.5-84.2,67.4c-10.5,9.3-20.7,18.8-31,28.3c-21.3,19.4-39.5,41.3-55.3,65.4c-17.4,26.5-42.3,41.6-73.5,46.9
			c-15.7,2.7-30.9-0.9-45.2-5.8c-32.7-11.2-56.5-33.8-66.9-66.7c-10.5-33.6-4.7-66.1,18-94c9.6-11.9,20.6-22.7,31.4-33.5
			c14.1-14.1,29-27.5,43.1-41.6c69.2-69,145.7-128.7,230.3-177.6c58.2-33.7,119.3-61.6,183.2-83.3c31.5-10.7,63.2-20.5,95.3-29.2
			c16.6-4.5,33.7-7.3,50.6-11c20.1-4.4,40.2-8.9,60.4-13.2l122.5-16.9c8.5-1.4,17.3-1.1,25.9-1.9c12.6-1.2,25.1-2.8,37.7-4.3
			c8-0.9,13.2-5.4,16.5-12.7c7.4-16.3,15-32.6,22.7-48.8c23.5-50,47.6-99.6,74-148.1c39.5-72.8,84.4-142,138.6-204.7
			c18.7-21.6,39.6-41.4,59.4-62.1c25-26,53.1-48.5,80-72.4c25-22.2,52.8-40.5,82.3-56.1c17.4-9.2,22.5-6.4,23.5,13.5
			c0.9,16.6,0.7,33.3-0.6,49.8c-3.5,46.7-15,91.8-31.1,135.7c-7.8,21.2-16.5,42.1-24.8,63.1c-6.4,16.3-16,30.7-27.8,43.5
			c-33.2,35.7-62.1,74.8-87.7,116.2c-16.8,27.1-32.1,55.2-47.8,83c-13.4,23.7-26.5,47.7-39.8,71.5c-1,1.7-2.1,3.4-2.9,5.2
			c-2.1,4.9,0.7,10,5.8,10.1c4,0.1,8-0.3,11.9-0.9c34.9-5.1,69.8-10,104.6-15.4c22.3-3.5,44.6-7.6,66.8-11.8
			c18.9-3.6,37.8-7.5,56.6-11.7c28.5-6.4,57.2-12.3,85-21.6c34.6-11.7,69.6-22.5,104-34.7c21.9-7.8,43.2-17.1,64.6-26.3
			c35.4-15.3,69.3-33.9,102.4-53.5c16.6-9.8,33.4-19.6,48.9-30.9c11.7-8.6,22.3-19,32.3-29.6c14-14.7,30.3-25.8,48.2-35
			c16.6-8.5,34.2-10.5,52.4-8.4c12.1,1.4,23.2,6.2,32.7,13.8c28.3,22.5,46,51.4,49.6,87.8
			C3642.8,1639.8,3643.2,1650.6,3642.1,1661.2z"/>
		<path class="st5" d="M3641.8,1629.2c-3.5-36.5-21.2-65.3-49.6-87.8c-9.5-7.6-20.6-12.4-32.7-13.8c-18.2-2.1-35.9-0.1-52.4,8.4
			c-17.9,9.2-34.2,20.2-48.2,35c-10,10.6-20.6,21-32.3,29.6c-15.6,11.3-32.3,21.1-48.9,30.9c-33.2,19.7-67,38.2-102.4,53.5
			c-21.3,9.2-42.7,18.5-64.6,26.3c-34.4,12.2-69.4,23-104,34.7c-27.8,9.4-56.4,15.3-85,21.6c-18.8,4.2-37.7,8.1-56.6,11.7
			c-22.2,4.2-44.4,8.3-66.8,11.8c-34.8,5.5-69.8,10.4-104.6,15.4c-3.9,0.6-7.9,1-11.9,0.9c-5.1-0.1-8-5.3-5.8-10.1
			c0.8-1.8,1.9-3.5,2.9-5.2c13.2-23.9,26.3-47.8,39.8-71.5c15.7-27.8,31-55.9,47.8-83c25.6-41.4,54.5-80.5,87.7-116.2
			c11.9-12.8,21.4-27.2,27.8-43.5c8.3-21,17-41.9,24.8-63.1c16.1-43.9,27.6-88.9,31.1-135.7c1.2-16.5,1.4-33.3,0.6-49.8
			c-1-19.9-6.1-22.7-23.5-13.5c-29.5,15.6-57.3,33.9-82.3,56.1c-26.8,23.9-55,46.4-80,72.4c-19.8,20.7-40.7,40.4-59.4,62.1
			c-54.2,62.8-99.1,131.9-138.6,204.7c-26.4,48.5-50.5,98.2-74,148.1c-7.6,16.2-15.2,32.5-22.7,48.8c-3.3,7.3-8.5,11.8-16.5,12.7
			c-11.1,1.3-22.2,2.7-33.4,3.8c-1,0.1-20.8,1.5-46.9,3.5c-25.5,1.9-50.5,7.2-75.7,11.2c-165.7,26.2-305,76.2-419.5,141.3
			c-84.6,48.9-161.1,108.6-230.3,177.6c-14.1,14.1-29,27.5-43.1,41.6c-10.8,10.8-21.8,21.6-31.4,33.5c-22.6,27.9-28.5,60.4-18,94
			c10.3,32.9,34.2,55.5,66.9,66.7c14.2,4.9,29.4,8.4,45.2,5.8c31.2-5.3,56.1-20.4,73.5-46.9c15.8-24.1,34-46,55.3-65.4
			c10.3-9.4,20.6-19,31-28.3c26.9-23.9,54.6-46.8,84.2-67.4c60.3-42,123.8-78.1,192.9-103.7c29.2-10.9,58.5-21.7,88.9-29.2
			c15.5-3.8,30.7-8.5,46.2-12.2s31.2-6.8,46.8-9.9c25.4-5,50.8-10,76.3-14.7c5.2-1,10.5-1.4,15.7-1.5c3.3-0.1,6.1,4,5.3,7.1
			c-0.7,2.5-1.7,5-2.7,7.5c-11.8,30.4-24,60.6-35.3,91.1c-14.9,40.1-34.1,78-56,114.6c-37.5,62.5-82.7,119.3-131.4,173.2
			c-36.6,40.5-75.6,78.7-116.8,114.7c-55.8,48.7-113.8,94.4-176.9,133.2c-39.7,24.4-81.1,45.7-124.3,63.4
			c-43.1,17.7-85.8,36.1-128.9,53.6c-22.7,9.2-45.7,18.1-69.1,25.4c-13.8,4.3-27.6,9.2-42.5,10.3c-13.1,1-26.4,4.3-38.8,8.7
			c-21.6,7.8-40.1,20.8-54.5,39.1c-27.9,35.3-37.8,75.6-33.1,119.9c1.3,12.4,7.1,22.8,15.9,31.5c11.6,11.4,26.2,15.2,41.8,16.2
			c31.9,2.1,62-6.9,91.6-16.8c22-7.3,43.1-17.5,64.8-25.9c45.8-17.6,91.8-35,137.8-52c28.7-10.6,57.8-20,86.5-30.5
			c39.9-14.6,79.9-29,119.5-44.7c34.6-13.7,68.8-28.3,102.7-43.7c45.8-20.9,85.6-51.2,123.1-84.3c33.4-29.5,65.8-60.2,98.7-90.3
			c28-25.6,57.8-49.2,88.6-71.4c42.8-30.7,87.3-58.8,133.8-83.4c34.6-18.2,70.3-34.1,108.3-45.1c18.1-5.2,36.3-8.5,54.6-11.1
			c25.3-3.6,50.3,1.7,75.3,5.9c2.6,0.4,5,1.7,7.5,2.6c44.2,15.3,75.6,45.9,100.1,84.5c1.8,2.8,2.7,6,4.2,9
			c11.9,23.2,21.6,47,27.3,72.6c4.7,21.4,10.4,42.7,11.8,64.7c1.1,15.9,2.7,31.9,2.5,47.8c-0.2,14.6-2.8,29.2-3.7,43.8
			c-1.6,25.5-0.7,50.7,10.5,74.3c8.1,17.1,20.8,29.7,40,32.9c26.4,4.3,51.6,0.6,75.2-13.1c42.9-25,66.2-62.6,71.6-111.3
			c1.3-11.8,1.5-23.6,1.8-35.5c0.4-21.3-0.6-42.7-3.1-63.9c-2.4-20-5.7-39.8-9.5-59.6c-7.3-37.8-16-75.4-29.8-111.7
			c-15.2-40-32.9-78.6-59-112.7c-18.7-24.4-39.8-46.6-65.7-63.7c-31.4-20.8-65.5-34.5-102.5-42.1c-29.8-6.1-59.6-5.7-89.5-4
			c-20.5,1.2-41,4.3-61.4,7.3c-18.4,2.7-36.7,6.1-54.9,9.9c-18.9,3.9-37.5,8.8-56.3,13.1c-8.4,1.9-17,3.4-25.5,4.9
			c-4.4,0.8-8.2-2.3-8-6.6c0.2-3.9,0.8-8,2.1-11.6c26.7-73,53.5-146.1,80.4-219c3.4-9.4,7.6-18.5,11.3-27.7
			c3.8-9.7,10.8-14.8,21.2-15.4c12.6-0.7,25.2-1.5,37.8-2.5c19.2-1.5,38.4-3.2,57.7-5c8.6-0.8,17.2-2,25.8-3
			c29.1-3.3,58.3-5.8,87.2-10c25.7-3.7,51.1-9.1,76.6-13.7c16.3-3,32.7-5.8,49-9.1c20.2-4.1,40.4-8.3,60.3-13.2
			c25.2-6.2,50.2-13,75.1-20.1c21.7-6.2,43.4-12.6,64.8-20c44.6-15.5,88.2-33.4,131.2-53c47.8-21.9,94.7-45.5,139.5-73.1
			c20.9-12.9,41.8-26,65.3-34.1c4.4-1.5,8.6-3.7,12.6-6c31.9-18.3,52.9-44.3,56.7-81.8C3643.2,1650.6,3642.8,1639.8,3641.8,1629.2z"
			/>
	</g>
</g>
<g id="texty_kopie">
	<path id="SVGID_x5F_1_x5F_" class="st6" d="M4967.3,2229.4c0,1137.6-1097.3,2059.8-2450.8,2059.8S65.8,3367.1,65.8,2229.4
		S1163,169.6,2516.5,169.6S4967.3,1091.8,4967.3,2229.4z"/>
	<text transform="matrix(1 0 0 1 0 1.153420e-04)" class="st7 st8"> </text>
	<g>
		<path id="SVGID_x5F_2_x5F_" class="st6" d="M4967.3,2229.4c0-1137.6-1097.3-2059.8-2450.8-2059.8S65.8,1091.8,65.8,2229.4
			S1163,4289.3,2516.5,4289.3S4967.3,3367.1,4967.3,2229.4z"/>
		<text transform="matrix(1 0 0 1 0 1.153420e-04)" class="st7 st8"> </text>
	</g>
	<rect x="2241.6" y="3320.8" class="st6" width="554.2" height="180"/>
	<text transform="matrix(1 0 0 1 2320.2886 3485.7612)" class="st5 st9 st10 st11">1903</text>
</g>
<g id="elipsa">
	<path class="st4" d="M2516.5,4317.6c-167.9,0-335.7-14.2-498.7-42.3c-158.9-27.3-315.3-68.1-464.7-121.2
		c-146.8-52.2-288.4-116.8-420.8-192c-131.3-74.5-254.7-160.2-367-254.5S551,3509.4,462.2,3398.9
		C372.5,3287.2,295.3,3167.8,233,3044c-63.5-126.2-112.3-258.3-145-392.7c-33.6-137.9-50.6-279.8-50.6-421.8s17-283.9,50.6-421.8
		c32.7-134.3,81.5-266.5,145-392.7c62.3-123.8,139.4-243.2,229.2-354.9C551,949.5,653,845.6,765.3,751.2
		c112.2-94.3,235.7-179.9,367-254.5c132.5-75.2,274-139.8,420.8-192c149.4-53.1,305.8-93.9,464.7-121.2
		c163-28,330.8-42.3,498.7-42.3s335.7,14.2,498.7,42.3c158.9,27.3,315.3,68.1,464.7,121.2c146.8,52.2,288.4,116.8,420.8,192
		c131.3,74.5,254.7,160.2,367,254.5C4380,845.6,4482,949.5,4570.8,1060c89.8,111.7,166.9,231.1,229.2,354.9
		c63.5,126.2,112.3,258.3,145,392.7c33.6,137.9,50.6,279.8,50.6,421.8s-17,283.9-50.6,421.8c-32.7,134.3-81.5,266.5-145,392.7
		c-62.3,123.8-139.4,243.2-229.2,354.9c-88.8,110.5-190.8,214.4-303.1,308.8c-112.2,94.3-235.7,179.9-367,254.5
		c-132.5,75.2-274,139.8-420.8,192c-149.4,53.1-305.8,93.9-464.7,121.2C2852.2,4303.4,2684.4,4317.6,2516.5,4317.6z M2516.5,198
		C1180.8,198,94.1,1109.3,94.1,2229.4s1086.7,2031.5,2422.4,2031.5S4939,3349.6,4939,2229.4S3852.3,198,2516.5,198z"/>
</g>
</svg>
