<svg xmlns="http://www.w3.org/2000/svg" viewBox="0 0 691.06 345.96"><title>Narodni sportovni agentura_logo rgb</title><g id="Vrstva_2" data-name="Vrstva 2"><rect width="691.06" height="345.96" fill="#fff"/></g><g id="Vrstva_1" data-name="Vrstva 1"><path d="M230.3,393.08c-11.13,0-30.84-7.21-47-21-14.27-12.18-31.28-34-31.28-68.66V201.55H308.56v101.9c0,34.69-17,56.48-31.28,68.66-16.14,13.76-35.85,21-47,21" transform="translate(-75.15 -124.66)" fill="#e32a2d"/><path d="M209.55,337.78c0,.45.51,1.13.51,1.84a2.64,2.64,0,0,1-2.36,2.24c-1.56,0-1-.7-2.46-.7-.72,0-1.15.42-1.46.42s-.55,0-.55-.25c0-.7,1.78-1.22,2.85-1.22s.37.66,1.81.66c.28,0,.94.09.94-.76s-.43-1.49-.43-2.07a1.17,1.17,0,0,1,.9-1.26c.33,0,.57.11.57.26s-.32.39-.32.84m-6.62,3.53c0,1.31-.46,1.27-.62,1.27a.26.26,0,0,1-.27-.29c0-1.85.44-1.72.59-1.72s.3,0,.3.74m-1.2.06c0,.18-.18,1.57-.92,1.57-.31,0-.27-.24-.27-.53,0-1.19.41-1.25.83-1.25.22,0,.36.08.36.21m-1.41.65c0,.13-.09,1-.54,1s-.43-.35-.43-.57c0-.44.58-.64.72-.64a.22.22,0,0,1,.25.22m-1.23.62c0,.25-.78.8-1,.8s-.31,0-.31-.21c0-.61.8-.78.91-.78s.37-.06.37.19m34.76-29.23a55.25,55.25,0,0,0-8.51-.87,72.58,72.58,0,0,0-13,1.35,4.65,4.65,0,0,1-.66.05c-2,0-4.67-1.54-5.2-3.4a2.37,2.37,0,0,1,.26-1.94c-.83,0-2.93.2-1.1,4.42-1.08,1.14-2.06-3.07-1.78-3.66-2.48,1.43-2,5.36-2,5.36l-1.21-.2a11.79,11.79,0,0,0-1.87-.15,12.11,12.11,0,0,0-6.39,1.86,25.71,25.71,0,0,1,6.08.4A14.24,14.24,0,0,0,202,317c.18,0,.36,0,.38.22s-.11.29-.29.31a5.34,5.34,0,0,1-.81.05,20.46,20.46,0,0,1-2.95-.24,23.18,23.18,0,0,0-3.85-.41c-1.64,0-3.24.1-3.94.7a14.39,14.39,0,0,0-2.48,2.62,20,20,0,0,1,4.93-.65c3.73,0,7.29.91,10,.91s8.64-.76,8.64-.63c0,1.24-6.15,1.34-7.37,3.24a20.3,20.3,0,0,0-3,8.32,6.26,6.26,0,0,1-1.68,4.1c-1.63,1.63-4.93,2.12-7.4,2.12a19.46,19.46,0,0,1-4.27-.49l-.78-.19v-.81c0-2.73-1.52-.95-1.44-1.85a1.13,1.13,0,0,0,.84-1.67,3.88,3.88,0,0,0-2.64-2.45A3.12,3.12,0,0,1,183,333a2.54,2.54,0,0,1-1.62.6,2.41,2.41,0,0,1-1.19-.32,2.79,2.79,0,0,1-1.24-1.76c-.57.66-1.39,1.59-.92,2.31.24.37,3.68,3,4.29.82.06-.22.51,0,.51.27s-.38.82-.3.86c.65.29,2.81.59,2.87.94s-.18.51-.48.5c-4.51-.29-5.82-.93-6.23-1.28,0,.56-.44,1.14-.57.82a4.65,4.65,0,0,0-1.4-2.19,2.8,2.8,0,0,0-3.73.21,2.81,2.81,0,0,1,2.29,2.21,2.55,2.55,0,0,1-1.4,2.59,2.69,2.69,0,0,1-1.24.29,3.58,3.58,0,0,1-1.63-.43c.12,4.1,2.82,4.59,3.68,4.59,1.85,0,2.63-2.75,3-2.75.78,0,0,1.31.36,1.31a13.18,13.18,0,0,0,3.68-.6c.75-.21,1.32-.49,2-.67,1.72-.45,3.12-.56,3.12-.11s-1.36.76-2.83,1.23-3.3,1.05-4.08,1.25c.64.54.56.93.22.93s-1-.73-2.05-.73c-2.22,0-2.94,3-2.9,3.69a3.18,3.18,0,0,1,3.34-1,2.6,2.6,0,0,1,1.71,2.57,3,3,0,0,1-2,2.5,4.87,4.87,0,0,0,2.35.81c1.08,0,1.78-.72,2.67-1.63a2.38,2.38,0,0,0,.44-2.31c-.08-.36.43-.6.53-.58.51.1.4,1.64.52,1.55a4.18,4.18,0,0,1,2.45-.82c.39,0,.88.07,1.43-1,.19-.37.64,0,.5.44a3.2,3.2,0,0,0,1,4,2.54,2.54,0,0,1,1-1.37,2.38,2.38,0,0,1,2.86,0,2.63,2.63,0,0,1,.77,2.75c1.54-.19,2.57-3.21,1.51-4.72-.09-.14.4-.56.59-.56s.7,1,1,1a3.47,3.47,0,0,0,.87-.09,2.8,2.8,0,0,1-.22-.84c0-.16.68-.37.79-.32s1.53,4.28,5.14,5.76a27.51,27.51,0,0,1-2.76-7c0-.12.25-.34.39-.31s3.16,5.19,6,5.19h.28c-2.45-1.81-3.89-6.67-3.88-6.82s.39-.21.53-.12c1.12.7,1.15,3,2.67,3l1.29,0a7.55,7.55,0,0,1-1.81-2.29c0-.11.21-.31.43-.31.62,0,1.73,2.71,5.09,2.71a1.84,1.84,0,0,0,.9-.16,16.22,16.22,0,0,1-2.56-3.41.32.32,0,0,1,.28-.24c.83,0,2.68,3.09,4.14,3.09a8.23,8.23,0,0,0,2.28-.36c-3.77-2.86-2.38-7.44-1.57-10.83a22.24,22.24,0,0,0,.8-4.06l0-.94.94-.05c1.64-.09,10.62-.87,16.84-3,0,0,.18-.7.58-2-1.79,1-5.36,2.74-11.77,2.74a.38.38,0,0,1,0-.76c6.82,0,11.14-2.57,12.16-3.4.24-.8.71-2.26.71-2.26s-5.17-1.22-2.58-8.63m-29.33-51.15a.53.53,0,0,1-.51.56c-.41,0-.48-.23-.78-.23a8.11,8.11,0,0,1-1.43.3c-2,0-2.26-2-2.26-2.66s.19-1,.19-1.63-.32-.84-.32-1.06.35-.45.49-.45c.82,0,.88.82.88,1.46s-.15.92-.15,1.38c0,1.12.67,2,1.44,2s.64-.38,1.34-.38a1.14,1.14,0,0,1,1.11.68m-4.85-6.46c0,.19-.44.27-.44.63,0,.15.06.15.06.28a.36.36,0,0,1-.39.34c-.49,0-.51-.32-.51-.55,0-.93.64-1,.9-1s.38.13.38.33m-1.2-1.27c0,.35-.2.25-.2.74a.48.48,0,0,1-.46.47c-.32,0-.41-.43-.41-.76,0-.49.27-.69.53-.69s.54.06.54.24m-1.35-.86c0,.55-.7.62-.78.62s-.23-.11-.23-.35c0-.45.12-.6.51-.6.21,0,.5,0,.5.33m-.89-1.27c0,.1-.34.51-.57.51s-.33-.06-.33-.2.39-.47.6-.47.3.06.3.16m11.58,2.4c-1.85-2.3-4.26-4.75-6-6.55-1-1.07-1.87-1.91-2.32-2.44a.34.34,0,0,1,.05-.48.33.33,0,0,1,.48,0c.43.51,1.25,1.34,2.29,2.4,1.68,1.71,3.94,4,5.76,6.22a7.21,7.21,0,0,1,.55-1.25l-.18-.24a51.21,51.21,0,0,0-7.74-8.44,95.43,95.43,0,0,1-9.29-9.61c-2.79-3.29-2.69-5.11-2.27-6.69.26-.94-.87-.44-.87-1.11.34,0,1.43-.14,1.68-.64.6-1.22.94-2-.27-4.14a2.57,2.57,0,0,1-1.83.8A2.31,2.31,0,0,1,185.5,221a2.56,2.56,0,0,1,.58-2.41,3.67,3.67,0,0,0-1.44-.29c-3,0-1.89,2.67-1.27,4.88.34.13,1,.13,1.2.7,0,.1-.52.39-.64.47.21.43.68,1.05,1.25,2,.73,1.26,1.58,2.5.92,2.5-.82,0-1.26-.84-2.46-2.53A12.84,12.84,0,0,1,181.3,221c-.13.22-.57,1-1.21.53,2.83-3.79-.74-6-2.12-5.89a2.58,2.58,0,0,1-.17,1.92,2.63,2.63,0,0,1-2.48,1.5c-.53,0-1.75-.41-2.48-2.18-2.19,1.33-2,4.62-2,5.92a5.72,5.72,0,0,1,4.29,1.46s.64-.51.83-.51a1,1,0,0,1,.58.31c0,.08-.84.94-.78,1a37.42,37.42,0,0,0,8.39,6.79c-.52,1.5-6.93-3.32-8.33-4.74,0,.71-.28.83-.5.83-.73-3.7-3.9-4.36-5.11-3.85a6.16,6.16,0,0,0-1.69,1,2.83,2.83,0,0,1,2,1.82,2.73,2.73,0,0,1-.65,2.89,2.56,2.56,0,0,1-1.78.64,4.6,4.6,0,0,1-1.22-.2,4.29,4.29,0,0,0,1.37,3.41,5,5,0,0,0,3.24.93c.93,0,2,.06,2.27-1.64,1.69-.5.64,1.49.64,1.49a21.61,21.61,0,0,0,2.35,2.15c1,.73,2.77.28,1.92,1.37-.47,0-1.41-.13-1.89.26-2,1.59-1.93,2.91-1.76,3.69a2.89,2.89,0,0,1,1.92-.19,2.43,2.43,0,0,1,1.86,1.88,3,3,0,0,1-1.39,2.84,2.69,2.69,0,0,0,1.27.37c.85,0,1.61-.5,2.61-1.68a1.86,1.86,0,0,0,.28-1.7c.86-.78,1.33,1.31,1.74,1.68,1.41,1.26,2.42,3.27,2.29,4.55a2.23,2.23,0,0,1-.95,1.69,2.29,2.29,0,0,1-1.28.42,2.22,2.22,0,0,1-1.11-.32,5.07,5.07,0,0,0,7,1.8c.23-.12.38.23.32.32-.44.69-3.37,1.25-4.38,2.4a7.39,7.39,0,0,0-1.48,3.46,5.78,5.78,0,0,1,2.84-1c2.27,0,3.56-1.79,5.39-1.79,1,0-3.15,2.4-4.42,2.94,1.68,1.68,6.39.23,6.51.23s.27,0,.27.26a8.93,8.93,0,0,1-4.76,1.51c.87.76,1.59,1.45,2.36,1.45,4.29,0,4.84-.62,4.84,0s-2.71-.35-3.5,2a10.33,10.33,0,0,0-.73,3.8c1.43-1,2.47-1.1,4.41-1.54s3.47-1.07,3.88-1.07.57.31.44.37c-5.06,2.36-4.62,6-4.06,8.69,5.83-3.73,3.92-6.81,12.15-14.72-1.09-.55-2.15-3-1.57-5.72m11.12-20.45a11.61,11.61,0,0,1-2,.77,13.66,13.66,0,0,0,1.51,2l.21.19a28,28,0,0,1,.3-3m8.07-7.57a1.83,1.83,0,0,1-1.85,1,1.18,1.18,0,0,1-1.31-1.36c0-.36.21-1,.68-1a.7.7,0,0,1,.72.68c0,.22-.17.41-.17.63s.17.23.37.23a4.07,4.07,0,0,0,1.39-.47c.15,0,.17.2.17.3m.44-.66a10.26,10.26,0,0,1-3.26-1.38,8.44,8.44,0,0,1-1.33,1.34,1.5,1.5,0,0,0,.46,1.62,2.9,2.9,0,0,0,3,.55,2.19,2.19,0,0,0,1.15-2.13m19.08-.71c0,.23-.06.57-.35.57-.59,0-.22-1.29-.68-1.29-.3,0-1.12.37-1.12,2.4,0,1.64.45,2,.86,2s.27-.78.78-.78a.28.28,0,0,1,.28.27,1.87,1.87,0,0,1-1.84,2,1.67,1.67,0,0,1-1.3-1.55c0-.75.26-1.39.26-2s-.14-1.05-.14-1.59c0-1.61,2-2.25,2.56-2.25s.69,2,.69,2.22m-13.93.24a.43.43,0,0,1-.37.49,15.81,15.81,0,0,1-3.93.12,2.93,2.93,0,0,1-1.64,2.77,3.28,3.28,0,0,1-1.36.28,3.83,3.83,0,0,1-2.57-1,2.42,2.42,0,0,1-.8-1.57,11,11,0,0,1-1,.59.43.43,0,0,1-.19,0,.44.44,0,0,1-.39-.24.43.43,0,0,1,.19-.57,9.61,9.61,0,0,0,3.16-2.65l.23-.34.35.21c2.35,1.47,4,2,7.82,1.48a.43.43,0,0,1,.48.37m-15.26,6.62c0,.24-.12.56-.38.56s-.79,0-.79-.25,0-.65.41-.65c.23,0,.76.1.76.34M215.79,231c0,.19-.08.62-.48.62s-.42-.11-.42-.24.06-.75.42-.75.48.17.48.37m-1.37,1.25c.24,0,.74,0,.74.33s-.49.65-.89.65-.4-.12-.4-.28.09-.7.55-.7m33.42-7.82-.12-.53c-.21-.93-.48-2.06-1-2-3.79.28-5.77,3.46-6,3.46-.39,0-.71-.52-1.18-1.1-.32-.39-.46-.47-.46-1,0-.76.92.37,1.33.93a7.86,7.86,0,0,1,1.57-1.81c-2.51,0-19.07-.06-19.26-.06a5.08,5.08,0,0,0-1.31.28c-1.81.63-2.08,1.07-2.52,1.8a9,9,0,0,1-.78,1.12l-.17.19-.24.09a26.35,26.35,0,0,0-5,2.81l-.11.08a4.12,4.12,0,0,0-1.05.91s0,.24.6.86a2,2,0,0,0,.93-.44c.41-.32,1.43-.13,1,.24a8.28,8.28,0,0,0-1.5,1.37,3.11,3.11,0,0,0,.74,2.13,2.67,2.67,0,0,0,1.94.53,8.27,8.27,0,0,0,3.45-.94,5.2,5.2,0,0,1,4.84-.13c.87.51,1.91,1.64,2,4.07.59,1.19,1.11,2.79.34,3.9a3.08,3.08,0,0,1-2.71,1.06h-1c-1.15,0-2.75-.33-3.69.56a10.81,10.81,0,0,0-1.62,2.74,17.14,17.14,0,0,1-1.09,2.25c2.39-.43,3.75-2.61,4.17-2.61s-.5,1.34-.51,2h0a2.09,2.09,0,0,1,1.11-.31c.47,0,1.71-2,2-2s.29.14.29.29c0,.84-1.58,1.76-1.58,2.71,0,.26,2.35-1.32,2.6-1.42,0-.29.47-1.39.94-1.39.15,0,.31.82.31,1.35s-.41.74-.41,1.11,1.44,2.46,1.44,2.15c0-3.34,1.25-2.87,1.25-4.88,0-1.42.37-1.33.55-1.33s.39.08.39,1a5.65,5.65,0,0,1-.35,2c3.06,0,1.67-3.92.6-4.9-.21-.2.43-.35.53-.35,1.33,0,3.14,4.37,5,4.37a4,4,0,0,1-.93-2.4c-.18-1.61.17-3-1.39-4.23a3.25,3.25,0,0,0-2.3-1,.41.41,0,0,1-.39-.33c0-.2.11-.36,1-.36s2,.29,3.36,2a3.44,3.44,0,0,0-.65-2.09,11.29,11.29,0,0,0-4.33-2.5s-.08-.37,1.54-.37c1.1,0,2,1.13,3.13,1.13.91,0,1.75-.76,1.75-1.09a9.21,9.21,0,0,1-2.2-.45c-.83-.26-1.45-1.19-2.19-1.42-1.7-.54-3.16-.79-3.16-1.15,0-.14.29-.41.59-.41s.39.35,1.17.35c.6,0,.54-.18.95-.18,1.1,0,3.87,2.32,4.49,2.32s.31-.91.86-.91.55.82.55,1.05a1.86,1.86,0,0,1-.73,1.56,1.77,1.77,0,0,1-1.71,1.09c.41.43,1.81,2.42.54,4.12,0,.86-.13,4.45,2.26,5.21.44.63-3.31,2.64-5.61-1.07-.26,1.33-.94,3.08-3.18,3-1,2.48.15,2.23.15,3.22a.78.78,0,0,1-.76.77c-.35,0-3.2-1.55-3.2-3.22a16.55,16.55,0,0,0-4,3.29,10.83,10.83,0,0,1-3.24,2.63c-1.73.8-3.29.76-4.09-.11a2.5,2.5,0,0,1-.41-2.43c-4.22,2.43-3.8,8.14.07,8.14,2.2,0,6-2.59,6-2.1s-3.07,3.12-4.78,3.12c-5.76,0-9.56,11.18-12.78,13.88,5.41,0,11.41-7.63,13-7.63.15,0,.27.74-.19,1.07-2.88,2.05-5.22,5.56-8.08,6.56,10.81,1.64,12.32-7.87,14.42-7.87.73.73-2,3.34-2.83,6.48-1,3.86.2,4.69-2,10,.64,0,3.22-1.45,4.83-3.76,2.13-3.06,2.44-5.93,3.83-7.32.22-.22.49.28.49.59s-2.22,6.58-3.34,7.71c2.1,0,7.95-4,8.43-9.92-1.65-.46-3.2-2.09-4.71-4.53-2.8-4.5-3.77-4.1-3.36-4.66s2.34,1.45,3.36,2.67,2.15,3.26,3.58,4.46a6.34,6.34,0,0,0,8-.17c-3,0-4.13-3.66-4.68-6.16-.78-3.55-2.78-4.88-3.42-6.44-.75-1.82-.95-2.73-.45-2.73.35,0,.28.79,1,1.91,1.23,1.79,2.17,2,4.16,7.16.67-1.11,2.91-4.25,2.91-6.56,0-5.34-3.45-7.72-2.91-8.31s4.51,3.18,4.12,8.63c3.77-4.8,2.75-8.86,1.6-9.57s-1.65-3.2-1.4-3.31c.7-.34.57,1.81,3.25,3.37a5.61,5.61,0,0,0,5.53.17c-3.74,0-4.39-4.63-5.27-6.71s-2.32-3.45-2.25-3.68c.26-.83,2.76,1.07,4.35,6.51,1.46-2.73.75-7.24-.42-9.07-1-1.61-2-2.58-1.39-3.2.34-.36,1.85,3,4.76,1.39,2.56-1.44,3-4.41,2.38-7.23M219.44,241c.73,0,1.38,0,2,.08a8.57,8.57,0,0,1-2-2.35c0,.7,0,1.43,0,2.27m31.36,4.65a6,6,0,0,0-1.07-5.21c-1-1.52-4.68-3.16-4-3.72,1.18-1,3.76,3.05,5.57,1.66a5.48,5.48,0,0,0,1.8-4.37,4.13,4.13,0,0,1-.65.36,4.18,4.18,0,0,1-1.71.34,11.19,11.19,0,0,1-4-1.13,11,11,0,0,0-3.3-.37,14.27,14.27,0,0,1-.34,10.41,3.45,3.45,0,0,0,4.2,1.71c.1,0-.1.83-.86,1.6a9.51,9.51,0,0,1,4.31,5c1.46-6.13-5.89-10.29-5.43-11.08.61-1,4.76,3.27,5.54,4.81M246.92,282c-1.74-1.41-2.95-4.07-3.49-6.85-1.31-6.79-2.46-8.92-3.22-10.4s-2.32-4.17-2.14-4.78,1.93,1.58,3.7,5a28.71,28.71,0,0,1,2.83,8.68c1.81-2.14,2.3-5,2.3-7.76,0-4.46-.91-6.32-1.75-7.48a30.22,30.22,0,0,0-3-3.77c-.79-.7-1.89-2.06-1.62-2.41s2.56,1.53,4.13,3.1c1.33,1.32,4,7.05,9.64,7.05-1.49-.72-2.42-3.85-3.92-8.05a17.82,17.82,0,0,0-1.4-3.57,8.11,8.11,0,0,0-3.54-3.13c-1.11.57-2.82.76-5.36-.26a5.29,5.29,0,0,1,.17,2.9,18.38,18.38,0,0,1-4,7.71c-1.45,1.8-.91,3.32-3.35,5.86,1.34,4.06,4.27,3.43,4.65,3.51.15,0-1.22,4.21-6.88,3.39h-.06c-2.35,9.61,3.08,14,3.71,14.77,0-4.3,2.91-7.71,2.91-15.32,0-.37.79-.25.8,0,0,1.79-.08,2.31-.08,3.62,0,6.67,8.42,8.16,9,8.16m3.69,24.91c0,.49-.42,1-.6,1s-.29-.09-.29-.22-.13-.23-.13-.39c0-.34.36-.32.36-.46a.48.48,0,0,1,.32-.35c.11,0,.34-.07.34.42m-.88-.57c-.45,0-.53-.27-.53-.41s.11-.12.15-.18,0-.21.08-.29a.6.6,0,0,1,.37-.19.18.18,0,0,1,.17.19c0,.08.13.28.13.39s.08.49-.37.49m-.08-2c0,.22-.12.6-.45.6s-.4-.44-.4-.6a.47.47,0,0,1,.4-.37.44.44,0,0,1,.45.37m-.28-1.14c0,.35-.39.52-.57.52s-.31-.26-.31-.44.31-.35.49-.35.39.05.39.27m.11,8.45c1.11,0,2.49,6.93,2.49,12.2s-.17,6.39-.63,6.39-.13-4.54-.61-9.78c-.74-8-2.17-8.81-1.25-8.81m.78,46.72c0-.35.26-1.09.44-1.09.56,0,.44,1.09.44,1.23a.5.5,0,0,1-.47.43c-.29,0-.41-.36-.41-.57m.39-2c0-.1.12-.57.5-.57s.71,1,.71,1.25a.42.42,0,0,1-.41.41,2.19,2.19,0,0,1-.8-1.09m.82-.8a6.2,6.2,0,0,1-.43-.82.52.52,0,0,1,.51-.39c.51,0,.88,1.44.88,1.62s-.14.51-.37.51-.35-.48-.59-.92m.67-1.21c-.26-.28-.57-.47-.57-.57s.29-.6.49-.6,1.21.82,1.21,1.37c0,.29-.37.5-.53.5s-.32-.39-.6-.7m.6-1.25c-.49,0-.19-2.23,1.49-2.23.83,0,1.29.39,1.29-1.17a1.6,1.6,0,0,0-1.62-1.43c-2,0-2.21-1.38-2.21-1.52s.17-.75.73-.75-.17,1.19,1.55,1.19a2.32,2.32,0,0,1,2.6,2.59,2.36,2.36,0,0,1-2.23,2.27c-.88,0-.8,1.05-1.6,1.05m-13.35-50.49a.49.49,0,0,1-.49.51c-.38,0-.4-.21-.4-.41a.41.41,0,0,1,.44-.37c.3,0,.45.1.45.27m-.58-1.22a.9.9,0,0,1-.72.83c-.32,0-.38-.44-.38-.62s.55-.64.73-.64.37,0,.37.43m-1.1-1a.63.63,0,0,1-.56.61c-.2,0-.24-.39-.24-.61s.33-.39.49-.39.31,0,.31.39m-.74-.86a.51.51,0,0,1-.52.47c-.28,0-.37-.27-.37-.47s.07-.36.44-.36.45.11.45.36m-26.22-18.91c0,.61.13,1.15.13,2.21s-1,1.43-2.42,1.43-1.15-.27-1.79-.27-.3.24-1.14.24c-.66,0-.09.31-1.32.31-.34,0-.57-.11-.57-.31s.35-.24.66-.24c.8,0,.59-.95,2.54-.95,1.11,0,1,.51,1.86.51a1.2,1.2,0,0,0,1.13-1.29c0-.51-.18-.9-.18-1.79s.55-.92.74-.92.49,0,.49.21-.13.55-.13.86m-7.66,3.83c0,.15-.05.64-.72.64-.93,0-.86-.51-.86-.64s.39-.46.46-.46a.18.18,0,0,1,.15.16c0,.08.08.14.31.14s.66,0,.66.16m-1.73.6a.75.75,0,0,1,.54.35.45.45,0,0,1-.46.47c-.69,0-1.06-.25-1.06-.47s.31-.68.55-.68.21.33.43.33m-1,1.21a.68.68,0,0,1-.6.49.57.57,0,0,1-.53-.59.62.62,0,0,1,.57-.64c.17,0,.13.1.13.27s0,.22.22.22.21.15.21.25m-1.58.67a.45.45,0,0,1-.49.44c-.33,0-.45-.19-.45-.37s.16-.74.59-.74.35.45.35.67m74.27,36.82a3.63,3.63,0,0,1-2.44,1,2.85,2.85,0,0,1-.91-.15c-1.45-.48-4.3-2.52-7.58-7.38a141,141,0,0,1-11.35-21.11c-2.07-4.65-3.39-8.63-5.26-11.67a6.14,6.14,0,0,0-3.19-2.26c3.3,4.94,6,11.29,5.63,11.68s-3-5.28-5.79-9.86c-1.74-2.86-4.27-4.75-4.65-5.75-1.13,4.77-3.05,8.57-.34,10.15-1.61,1.61-8.59-5.13-8.59-12.22-3.17,4.92-7.95,6-9.42,5.92-1.21,1.76-6.09,3.71-6.68,3.71-1.17,0-.88-1.41-.49-1.41,1.93,0,3.44-8.52,3.17-10.74,0,.54-3.75,2.54-7.31,2.54a11.48,11.48,0,0,1-3.46-.45l-3.87,2c-3.19,1.68-6.2,3.27-7.17,3.91a.33.33,0,0,1-.19.06.36.36,0,0,1-.29-.16.35.35,0,0,1,.1-.48c1-.65,4-2.25,7.23-3.94l3.23-1.71a2.21,2.21,0,0,0-.37,0c-.77,0-.88.81-5.58.88l-.68.39c-1.73,1-3.53,2.12-5.27,3.22-5.05,3.18-9.82,6.18-13.3,6.18a5.91,5.91,0,0,1-3.6-.88c0,.23-.15.35-.44.35s-.24-.54-.25-1c-.16-.18-.3-.36-.44-.54a3,3,0,0,0-2.08-1.34,2.46,2.46,0,0,1-.42,1.76,2.29,2.29,0,0,1-1.85.95,3.4,3.4,0,0,1-2.73-1.81,3.87,3.87,0,0,0-2.15,2.59c-.3,1.37.32,1.84,1.52,1.84s2.59.75,3.41.75.86-1,1.47-1c.42,0,.13.68.29.68.32,0,2.9-1.19,3.88-1.19.24,0,.29.05.29.29,0,.56-1.06.74-2.28,1.36a7.81,7.81,0,0,1-3.44,1.22c-.72,0-.4-.12-.91-.12-.3,0,.07.83-.3.83-.87,0-.39-1.51-2.85-1.51a3.51,3.51,0,0,0-3.31,2,3.08,3.08,0,0,1,2.52,1,3.18,3.18,0,0,1,.77,3.32,2.76,2.76,0,0,1-2.64,1.6c.19,1.55,1.7,1.91,3.11,2.16l.44.08a5.89,5.89,0,0,1,2.21-3.38c0-.25-.42-.15-.42-.59a.73.73,0,0,1,.55-.65c.28,0,.47.65.7.65a20.6,20.6,0,0,0,3.43-2.23c1.92-1.53,3.53-3.44,4.08-3.44s.38.28.38.37a16.44,16.44,0,0,1-2.61,3.12,15.65,15.65,0,0,1-3,2.5c.22,0,1.11.23,1.11.46s-.23.22-.46.22-1.17-.22-1.36-.22c-.91,0-3.41,1.88-3.63,3.84a3.33,3.33,0,0,0,.44,2,3,3,0,0,1,2.43-1.58,2.61,2.61,0,0,1,2.5,1.49,3,3,0,0,1-.3,2.9s2.49.2,3.56-.61c1.61-1.23,3.9-4.13,1.27-6.16,1.56-2,1.41.61,2.42.57a9.2,9.2,0,0,0,3.26-.77s-.31-2,1.36-2a3.29,3.29,0,0,0-.08,2.32,4.34,4.34,0,0,0,2.31,1.85,2.8,2.8,0,0,1,.83-2.63,2.12,2.12,0,0,1,2.46-.26,2.9,2.9,0,0,1,1.3,2.64c1.38-.73,1.57-1.89,1.36-3.39a2,2,0,0,0-1.4-1.57c.27-1.42,1.78.11,5.24-.77a4.52,4.52,0,0,1,.93-.11,2.17,2.17,0,0,1,2.1,1.27,2.63,2.63,0,0,1,.19.9c2.54-2.64,1.45-5.7,3.09-6.09.88,2.65-.43,7.59,1.65,10.27a15.17,15.17,0,0,1,.48-3.8c1-3,2.16-5.46,1.38-6.81,1.58.06,1.74,1.33.1,5.69a19.84,19.84,0,0,0,2.15-1.76c.93-.94,1.48-3.81,1.24-5.08,2.09-.52,0,4.14.64,5.41a7.26,7.26,0,0,0,2.11,2.77c-.66-2.3.06-3.77.46-5.48.31-1.28.91-3.38,1.17-4.87,1.73-1.16,0,5-.12,5.17a18.54,18.54,0,0,0,4.26-5.63c-.45-1.06.12-1.55.35-1.67.74,3.86,3.79,6.5,3.49,6.85s-1.19-.56-2-1.65a14.19,14.19,0,0,1-1.47-2.71c-1,2-2.66,4.53-2.66,4.53,1.78,1.53,11.5,7.75,17.52,13.09a27.36,27.36,0,0,1,3.52,4c.53.67-.1,1.42-.71.57a8.15,8.15,0,0,0-6.31-3.61c1.48.91,5.75,4.72,5.75,7.92,0,1.4-.83,1.36-.83,3.83,0,2.85,1.78,3.48,2.22,3.54.29-1.6,2.22-7.81,2.22-10.33.19-5.8-.29-6.95.19-6.95.93,0,1.18,3.83,1.18,6.32,0,5.41-3.85,15.19-4.59,19.27-1.61,8.88-3.07,13.76-7.07,14.56a3.84,3.84,0,0,1-.76.08,4.87,4.87,0,0,1-2.79-1,4,4,0,0,0,1,2.18,5.34,5.34,0,0,0,3.77,1.31,4.68,4.68,0,0,0,3.58-1.82.18.18,0,0,1,.28.24c-.8,1.09-1.32,1-2.19,3a14.33,14.33,0,0,0-1.29,7.41,51.93,51.93,0,0,1,3.94-7.46.22.22,0,0,1,.29-.1.23.23,0,0,1,.05.31c-.89,1.48-4.35,7.33-3.91,9.12a12.74,12.74,0,0,0,1.42,3.25,6.13,6.13,0,0,0,.4.57c0-3.89,1.36-5.84,3-8.26a33.67,33.67,0,0,0,2.72-4.76c1-2,1.17-5.78,1.68-6.54.23-.34.8-.4.81,0,.07,3.09-2.17,5.22,1.17,8.74,1.15,1.2,2.59,2.62,2.59,4.7,0,2.81-7.11,12.5-9.86,12.5-.19,0-.45,0-.88-.09-.13,0,.84.87-.21.79-.32-.16-.9-1-1.87-1a3.22,3.22,0,0,0-2.67.91,2.13,2.13,0,0,1,1.13,1.53,3.18,3.18,0,0,1-1.39,3,2.69,2.69,0,0,1-1.11.45c-.2.91,0,3.69,4.13.35.26-.21.18-1,.51-1.35s.41.14.68.1,2.33-2.91,2.64-3.24.71,0,.58.46a18.39,18.39,0,0,1-3.59,5.22c-.13.13,1.05,0,.53.82-.11.17-1.21-.39-1.21-.39-4.59,1.76-5.14,4.33-4.24,5.6a3.16,3.16,0,0,1,2.87-1.07,2.67,2.67,0,0,1,2.19,2.06,2.94,2.94,0,0,1-1.1,2.77,4,4,0,0,0,3.14,0c2-.66,4.57-2.77,1.53-5.2-.25-.2.19-.57.34-.67s.82.71.85.54c.22-1.25,1.36-2.6,1.88-4.94.39-1.74.66-4.23.91-4.35s.66.45.65,1.05a22.2,22.2,0,0,1-.77,5.45,4.55,4.55,0,0,0,.92-.05c.25,0,.29.2.05.29-3.78,1.43-1.65,5.37-1.07,5.82a2.89,2.89,0,0,1,1.45-2.54,2.66,2.66,0,0,1,3,.32,2.59,2.59,0,0,1,.81,2.28c2.26-.67,3.56-2,3.77-3.76a4.31,4.31,0,0,0-.71-3,2.21,2.21,0,0,0-1.65-.37c-.34.06-.33-.93-.1-.94a3.69,3.69,0,0,0,2.37-1.5,2.44,2.44,0,0,0-.2-1c-.12-.34.2-1,.51-.8,2.15,1.6,2.63,1.63,3.37,1.63a3.48,3.48,0,0,0,1.7-.33l.11-.06-.33-.21a3.47,3.47,0,0,1-1.52-1.43,2.16,2.16,0,0,1,.6-2.5c.39-.32,1.44-.89,3.19,0h0c-.78-.45-1.41-1.47-2.32-1.47-1.07,0-1-.61-1-.61s0-.62.47-.62c2.93,0,2.54-.06,5-1,0-1.05-4.29-.48-4.61-1.79,0-.16.12-.32.34-.31,6.5.06,6.39-.39,7.6-1.43-.27-.07-.58.44-1.62,0s-1.44-1.66-4.33-1.63c-.27,0-.44-.54,0-.54,4.77,0,5.85-1.37,6.31-2.15-.95-.26-3.66-.12-4.68-.48-.35-.13-.08-.45.24-.44,5,.14,7-1.48,7.41-2-2.12,0-3.67-.17-5-.19s-1.05.26-1.79.14c-.39-.06-.82-.39-.56-.48.81-.3,5.91-.83,6.93-3.47,0,0-3.71.95-4.95.1-.23-.16.05-.35.2-.44.78-.49,5.58.68,6.81-3a14,14,0,0,1-1.66.1c-3.63,0-5.24-1.7-7.11-3.66a22,22,0,0,0-5.06-4.25l-.8-.48.39-.84c.4-.94,1-13.53.51-16.31-2.07-10.78-3.92-11.55-3-12s3.68,9.27,4.9,11.27c1.91,3.12,5,5.6,8.32,8.22,6.46,5.14,13.13,10.45,12.34,21.39A12.38,12.38,0,0,0,279,336.71c-.47-1.4-3.06-4.82-2.58-5.3s2.25,4.7,9.07,4.7a15.88,15.88,0,0,0,9.27-2.72c-4.34-.08-6.76-1.65-10.36-2.42-2.29-.49-4.71-.11-4.71-.37,0-.65,5.41-1.71,5.41-1.71,3.51-.78,5.7-4.27,6.57-7a32,32,0,0,1-6.63,3.2c-4.73,1.82-5.64,3.57-6,3.22s1.27-1.4,2.28-4.66a18.42,18.42,0,0,0,.89-5.17v-.42H274.9a6.43,6.43,0,0,1-1.83,5.63m3.74-12.09a61.29,61.29,0,0,1-8.08-.56c.84,3.41,3.14,4.43,5.34,5.86h9c1.1-.2,4.28-3.58,5.15-6.23-2.05.58-6.9.93-11.45.93m-5.72-62.33c1.54-1.87,4.33-5.17,5.85-6.77-5.21-4.58-6.67-12.09-5.07-14.74a3.6,3.6,0,0,1,3.18-1.65,4.71,4.71,0,0,1,.53,0,3.82,3.82,0,0,0-2.86-2.42,3.43,3.43,0,0,0-.56,0c-1.84,0-5.44,1.36-4.77,7.37,0,.18-.31.26-.34.17-.44-1.22-.9-4.48-1.1-5.29s-.48-1.67-.76-2.58a25.31,25.31,0,0,1-1.59-10.75c-3.09,3.81-3.25,12.75-.09,16.54.12.13-.13.47-.35.47a14.46,14.46,0,0,1-2.26-3.91,46.73,46.73,0,0,1-.88-6.92c-4.78,6.59,2.05,13.89,3.12,15.35,0,0,.17.53-.29.53s-5-6.07-5-6.89c-2.24,6.55,3.52,9.49,5.84,10.67.12.07-.18.69-.56.69a22.9,22.9,0,0,1-4.7-2.83,6.11,6.11,0,0,0,1.3,4.78c2,2.68,5,2,5,2.7s-2.85-.51-4.38.23c-1.36.65-1.43,2.71-1.32,3.35a5.87,5.87,0,0,0,2.12,3.37,3.91,3.91,0,0,1,2.25-3.52,4.42,4.42,0,0,1,1.71-.32,10.73,10.73,0,0,1,6,2.38m31.26,25.79a8.39,8.39,0,0,0,0-4.54,15.12,15.12,0,0,1-3.16,3.36c-1.42.92-4.57,3.25-4.92,3.28-.09,0-.32-.29-.19-.39a31.35,31.35,0,0,1,2.71-2.2,11.09,11.09,0,0,0,4-3.71c2.29-3.14,1.43-5.44,1.37-6.53a39.78,39.78,0,0,1-5.43,4.27,11.54,11.54,0,0,0-3.33,3.21c-.13.19-.51,0-.54-.12a11.87,11.87,0,0,0,.26-2.76c0-6.28-8.65-18.85-10.29-20.17a40.24,40.24,0,0,0-4.72,4.12c5.09,5,7.55,11,8.21,20s-.88,19.43-4.68,31.9c-.12.46-.26.92-.43,1.39a.51.51,0,0,1-.48.35.41.41,0,0,1-.16,0,.53.53,0,0,1-.34-.65c.15-.47.3-.94.44-1.4a19,19,0,0,0-.7-11.87,17.48,17.48,0,0,1-1.31,5.49,15.39,15.39,0,0,0-.91,5.3.35.35,0,0,1-.34.35.35.35,0,0,1-.35-.35,16.22,16.22,0,0,1,.94-5.51c.52-1.67,2.2-5.88-.4-8.8a32.24,32.24,0,0,1-1.68,5.88c-.56,1.58-1.11,3.17-1.48,4.66v0h0c-.55,2.24-.66,4.24.36,5.59a.52.52,0,0,1-.1.72.51.51,0,0,1-.73-.1c-1.19-1.58-1.15-3.73-.62-6.08-5.67-10.52-8.86-19.72-6.2-30.26,2.55-10.12,8.36-16,12.22-19.64s7.32-4.39,10.35-2.79a5.34,5.34,0,0,1,2.47,4,5.49,5.49,0,0,0,2.41-3.56,3.93,3.93,0,0,0-1.17-3.1,5.94,5.94,0,0,0-4.74-1c-.39-.62,1.42-1,2.13-1,1.06,0,1.62.47,2.18.47a1.38,1.38,0,0,0,.58-.21,6.64,6.64,0,0,0,3.33-5.65c-.22.39-4.71,3.63-5.51,3.63-.49,0-.58-.35-.45-.47,1.74-1.4,5-3.33,6-5.17,1.38-2.34,1.08-4.54,1.08-6.24-.47,1.08-5,6.47-5.69,6.47-.31,0-.31-.31,0-.73,2.78-4,8.32-8,4.83-15.15-.39,3.46-5,8.46-5.12,8.46-1.36,0,4.43-5.76,4.43-10.78,0-2.57-.38-3.8-1.4-4.85a20.58,20.58,0,0,1-2.81,6.44A19.7,19.7,0,0,0,290,223.5c-.42,1.66-.47,1.91-1.11,4.92,0,.15-.21.34-.3.25-.59-.59,0-2.15-.46-3.65-.41-1.28-1.67-2.39-3.88-2.39a4.26,4.26,0,0,0-2.12.54,4.43,4.43,0,0,0-1.88,2.21,3.9,3.9,0,0,1,3.27.58c1.76,1.24,2.54,3.93,2,6.7-.86,4-4.19,7.23-7.76,10.56a82.33,82.33,0,0,0-6.52,7.57c-5.06,6.42-9.13,14.55-9.32,18.46-.06,1.4.09,2.57,0,2.73s-.47.41-.53.15c-.49-2-5.47-3.84-7.63-5.95a6.83,6.83,0,0,0-.33,4.9c.81,3.64,3.49,3.2,7,5.91.3.23-.22.61-.39.61s-5.81-2.79-6.22-3.57a6.62,6.62,0,0,0,.14,4.59c1,2.83,6,3.68,6.54,5.44.11.39-.34.51-.53.36-.92-.77-4.59-2.34-5.3-3.14a5.26,5.26,0,0,0-.15,3.1c2.74,4.63,7.44,4.61,8,7.39.07.38-.3.54-.49.32-1.53-1.91-.44-.52-5.46-3.76-.32,2.66-.1,3.63.54,5.1,1.43,3.3,5.5,2.32,7.46,5.75.1.18-.24.74-.49.44-1.56-1.85-2.48-1.71-5.07-2.89a8.88,8.88,0,0,0,2,5.41c2.24,2,5,1.51,6.15,3.8.15.31-.22.47-.49.47a8.58,8.58,0,0,0-3.79-1.87,7.65,7.65,0,0,0,5.81,5.38,58.3,58.3,0,0,0,10,.56c4.56-.07,9.09-.53,10-1a10.62,10.62,0,0,0,5.12-6.57c-2.11,1.58-3.62,1-4.93,2.47a.4.4,0,0,1-.66-.11c0-.35,1.49-1.56,2.19-1.89a15.23,15.23,0,0,0,4.24-2.25,8.88,8.88,0,0,0,2.73-5.33,34,34,0,0,0-6.09,3.56.28.28,0,0,1-.41-.24c0-1.25,3.23-1.93,7-5.23,1.5-1.33,2.24-6,2.08-7a32,32,0,0,1-2.71,2c-1.25.82-2.51,1.39-2.79,1.58-.61.43-1,1.13-1.28,1.13s-.33-.11-.33-.29c0-.66,1.9-1.61,4.34-3.41a18.37,18.37,0,0,0,3.59-3.79,8.1,8.1,0,0,0,1.27-5.48,6.35,6.35,0,0,1-2,2.56,40.32,40.32,0,0,1-3.73,2.14c-1.55.89-2.09,1.27-3.09,1.95-.13.09-.39-.08-.27-.23,2-2.56,3.4-2.21,5.92-4.27a13,13,0,0,0,3.64-5.74" transform="translate(-75.15 -124.66)" fill="#fff"/><path d="M241.25,382.78a4,4,0,0,0,1.35,2.6c.75-2,2.77-3,1.35-5a1.69,1.69,0,0,0-1.83-.19c-.75.41-.94,1.37-.87,2.6M228,381.47a6.45,6.45,0,0,0-.07,4.17,16.72,16.72,0,0,1,2.36-2c1-.76,1.66-1.55,1.5-2.35a1.64,1.64,0,0,0-1.36-1.24,2.37,2.37,0,0,0-2.43,1.43m-4.5-11.17a3.86,3.86,0,0,1,3.28,1.06c.81.81,2.62-1.1,2.41-2.08-.27-1.24-3.3-1.31-5.69,1m1.59-130a15.17,15.17,0,0,0-4.69-1.51,11.36,11.36,0,0,0,2.49,2.43c1,0,1.76-.17,2.06-.6a1.34,1.34,0,0,0,.14-.32m-57,96.62c2.67,0,3.15,2.59,5.25,1.8a1.45,1.45,0,0,0,.85-1.51c-.11-.74-1.81-2.87-6.1-.29M163.83,293a1.9,1.9,0,0,0-2.29-.48c-1.32.66-3.49,3.12-3.58,4.26a5.23,5.23,0,0,1,2.72-.68c.32,0,.59,0,.81,0,0,0,.74.06.94.06a2.32,2.32,0,0,0,2-1,2.14,2.14,0,0,0-.57-2.2m5.43-64a1.65,1.65,0,0,0,.36-1.77A2.26,2.26,0,0,0,167.4,226c-1.34.09-3.28,1.07-3.39,1.48a3.41,3.41,0,0,0,.78.46c.51.25,1.69,1,1.69,1,1.22.57,2.21.59,2.78.07m.92,54.85a1.54,1.54,0,0,0,.14-1.4l-.21-.4a4.29,4.29,0,0,0-2.69-1.59,4.77,4.77,0,0,0-1-.11,4.41,4.41,0,0,0-.52,0c1,1.65,1.73,4,3.12,4a1.34,1.34,0,0,0,1.15-.51m1.63,19.51a1.57,1.57,0,0,0-1.64-1.88,2,2,0,0,0-1.87,2,5.09,5.09,0,0,0,.86,3.43c.81-2.14,2.55-1.78,2.65-3.53m5.07-86.32a1.56,1.56,0,0,0-.29-1.84,5.55,5.55,0,0,0-4.72-2.05c.22.35,1.31,2.14,1.87,3.13s.9,1.69,1.65,1.69a1.63,1.63,0,0,0,1.49-.93m1,26.69a1.4,1.4,0,0,0-1.09-1.05,2,2,0,0,0-2.11.81h0a4.5,4.5,0,0,1-2.18,1.61,4.88,4.88,0,0,0,2.85.82,2.29,2.29,0,0,0,2.53-2.19m1.37,105.36a1.55,1.55,0,0,0-1-1.53c-.89-.32-3.39.33-3.15,4.46a3,3,0,0,1,1.61-.9c1.58-.36,2.52-1.1,2.58-2m3.1-16.89c1.49-1.85.15-4.14-2.71-5.43.88,2.37-.52,4.69,1.09,5.61a1.44,1.44,0,0,0,1.62-.18m7.48-115.91a9.09,9.09,0,0,1-2.2,2.22c-.8.69-1.37,1.43-1.12,2.19a1.36,1.36,0,0,0,1.2.92c2.19.09,2.43-4.77,2.12-5.33m-.59,81.78c-.31-.26-1,0-1.27.14-.73.43-.66,1.86-.29,2.61a3.51,3.51,0,0,1-.05,2.43c1.82-.76,3.45-3.66,1.61-5.18m4.13,53.49a1.45,1.45,0,0,0-1.62,0c-1.43.88,0,2.7-.71,4.57,3.54-1.67,2.91-4.13,2.33-4.6M218.58,241c0-.83,0-1.51,0-2.2l-.69.11a19.6,19.6,0,0,1-3.08.22c-2.28,0-6.38-.36-8.24-2.74a4.48,4.48,0,0,1-.93-3,4.05,4.05,0,0,0-1.26,3.35,4.85,4.85,0,0,0,3.71,4.3,17,17,0,0,0,3.59.32c1.25,0,2.47-.08,3.29-.15l.73-.06c.71-.06,1.17-.09,1.49-.09s1.12,0,1.4,0m23.53-22.9a33.74,33.74,0,0,1,2.77-9.32,8.14,8.14,0,0,0-3,2.14l-.38.38h-.43a2.38,2.38,0,0,0-2.63,2.56c0,2,3,1.67,2.07,2.63-.81.81-3.1-1.4-3.32-1.4s-2.07,1.65-2.87.85,2.53-.56,2.53-3.2a1.79,1.79,0,0,0-1.39-1.84c-1.16-.16-1.66-1.28-2.06-2.18-.61-1.36-.95-1.82-1.77-1.82-1,0-1.62,1.15-2.13,2.16-.41.81-.77,1.69-1.56,1.79s-1,.14-1.09.25a2.48,2.48,0,0,0-.68,1.86c0,2.34,3.17,2.24,2.22,3.19s-2.87-1.29-3-1.29-2.12,2.16-2.86,1.42,2.3-1.49,2.3-3.3a3.08,3.08,0,0,0-.25-.9,1.29,1.29,0,0,1-.92-.68,5.2,5.2,0,0,0-.75,0,1.72,1.72,0,0,1-1.37-.93,2.88,2.88,0,0,0-.94-.93,4.9,4.9,0,0,0-1.65-.54c2.34,3.84,3,9.63,3.17,11.81,1.42.09,16.83.42,19.73.1,0-.65.09-1.3.17-1.93-1.62,0-9-.12-11.53-.32-1.18-.09-.81-.87,0-.83,2.16.09,6.73.22,11.65.31m14.72,151.39c-.5-1.17-2.27-1.59-2.83-1.14a1.14,1.14,0,0,0-.28,1.32c.35.84,2.06,1.22,2.9,3a3,3,0,0,0,.21-3.17" transform="translate(-75.15 -124.66)" fill="#f8bf00"/><polygon points="278.5 76.89 272.12 76.89 272.12 143.18 278.5 138.72 278.5 76.89" fill="#eceaea"/><polygon points="272.12 269.07 278.5 269.07 278.5 202.78 272.12 207.24 272.12 269.07" fill="#183ece"/><polygon points="272.12 143.18 272.12 207.24 278.5 202.78 278.5 138.72 272.12 143.18" fill="#e32a2d"/><path d="M416.59,217.7h7.59v37.17h-8.76l-16.15-26,.69,10.47v15.55h-7.59V217.7h8.71l16.2,26-.69-10.46Z" transform="translate(-75.15 -124.66)" fill="#0a0b0b"/><path d="M457.74,254.87l-3.13-8.76h-15l-3.19,8.76h-8l13.92-37.17h9.61l13.91,37.17Zm-4.09-48.32L443.83,214l-3.3-3.34,8.61-8.6Zm-11.47,32.34H452l-4.88-13.49Z" transform="translate(-75.15 -124.66)" fill="#0a0b0b"/><path d="M491.67,254.87l-9.61-13.38h-4.19v13.38h-7.6V217.7h16q5.94,0,9.32,3.27a11.76,11.76,0,0,1,3.37,8.84,11.54,11.54,0,0,1-2.18,7.27,10.82,10.82,0,0,1-6.16,3.83l10.41,14Zm-13.8-30v9.93h7.53a6.39,6.39,0,0,0,4.38-1.3,4.6,4.6,0,0,0,1.47-3.64,4.68,4.68,0,0,0-1.49-3.66,6.37,6.37,0,0,0-4.36-1.33Z" transform="translate(-75.15 -124.66)" fill="#0a0b0b"/><path d="M507.89,222.59a20,20,0,0,1,27.59,0,19.61,19.61,0,0,1,0,27.4,20,20,0,0,1-27.59,0,19.68,19.68,0,0,1,0-27.4Zm22.15,5.1a12,12,0,0,0-16.73,0,12.8,12.8,0,0,0,0,17.2,12,12,0,0,0,16.73,0,12.8,12.8,0,0,0,0-17.2Z" transform="translate(-75.15 -124.66)" fill="#0a0b0b"/><path d="M559.85,217.7A18.66,18.66,0,0,1,573.42,223a18.92,18.92,0,0,1,0,26.55,18.66,18.66,0,0,1-13.57,5.31H546.42V217.7Zm0,30a11.37,11.37,0,1,0,0-22.73H554v22.73Z" transform="translate(-75.15 -124.66)" fill="#0a0b0b"/><path d="M608.23,217.7h7.59v37.17h-8.76l-16.14-26,.69,10.47v15.55H584V217.7h8.7l16.2,26-.69-10.46Z" transform="translate(-75.15 -124.66)" fill="#0a0b0b"/><path d="M628.41,202l4.51,4.51L623.1,214l-3.29-3.34Zm-5.84,52.83V217.7h7.59v37.17Z" transform="translate(-75.15 -124.66)" fill="#0a0b0b"/><path d="M406,295.92a57.93,57.93,0,0,1,6.58,1.7,21.83,21.83,0,0,1,4.57,2.15,7.49,7.49,0,0,1,2.94,3.21,11,11,0,0,1,.88,4.62,11.09,11.09,0,0,1-1.3,5.45,9.46,9.46,0,0,1-3.45,3.64,18.27,18.27,0,0,1-4.52,1.91,18.72,18.72,0,0,1-4.86.63q-7.59,0-11.54-3.58a14.17,14.17,0,0,1-4.65-9h7.65a7.1,7.1,0,0,0,2.73,4.19,10.17,10.17,0,0,0,5.76,1.33,8.8,8.8,0,0,0,4.86-1.11,3.58,3.58,0,0,0,1.67-3.14,2.51,2.51,0,0,0-.93-2,6,6,0,0,0-2.25-1.14c-.89-.25-2.46-.62-4.73-1.12l-.4-.08-.37-.08-.45-.1a37.37,37.37,0,0,1-4.83-1.28,18.85,18.85,0,0,1-3.88-1.91,8,8,0,0,1-2.89-3.13,9.85,9.85,0,0,1-1-4.57,10.1,10.1,0,0,1,4.14-8.6,16,16,0,0,1,9.87-3.08q7,0,10.65,3.21a13,13,0,0,1,4.33,8.31h-7.7q-1.38-4.46-7.22-4.46a8.12,8.12,0,0,0-4.84,1.19,3.73,3.73,0,0,0-1.59,3.11,2.32,2.32,0,0,0,1.36,2.23A24.92,24.92,0,0,0,406,295.92Z" transform="translate(-75.15 -124.66)" fill="#0a0b0b"/><path d="M441.7,281.42q6.06,0,9.64,3.35a11.89,11.89,0,0,1,3.59,9.13,12.16,12.16,0,0,1-3.62,9.27q-3.6,3.42-9.61,3.42h-8v12h-7.59V281.42Zm-.32,17.95a6,6,0,0,0,4.36-1.43,6,6,0,0,0,0-7.89,6.14,6.14,0,0,0-4.36-1.4h-7.7v10.72Z" transform="translate(-75.15 -124.66)" fill="#0a0b0b"/><path d="M464.14,286.31a20,20,0,0,1,27.58,0,19.61,19.61,0,0,1,0,27.4,20,20,0,0,1-27.58,0,19.68,19.68,0,0,1,0-27.4Zm22.14,5.1a12,12,0,0,0-16.72,0,12.8,12.8,0,0,0,0,17.2,12,12,0,0,0,16.72,0,12.8,12.8,0,0,0,0-17.2Z" transform="translate(-75.15 -124.66)" fill="#0a0b0b"/><path d="M524.06,318.6l-9.61-13.39h-4.19V318.6h-7.6V281.42h16q5.94,0,9.32,3.27a11.74,11.74,0,0,1,3.37,8.84,11.57,11.57,0,0,1-2.18,7.28,10.86,10.86,0,0,1-6.16,3.82l10.41,14Zm-13.8-30v9.93h7.54a6.45,6.45,0,0,0,4.38-1.3,5.27,5.27,0,0,0,0-7.31,6.36,6.36,0,0,0-4.35-1.32Z" transform="translate(-75.15 -124.66)" fill="#0a0b0b"/><path d="M563.1,281.42v7.23H552.37v30h-7.6v-30H534.1v-7.23Z" transform="translate(-75.15 -124.66)" fill="#0a0b0b"/><path d="M571.14,286.31a20,20,0,0,1,27.59,0,19.63,19.63,0,0,1,0,27.4,20,20,0,0,1-27.59,0,19.68,19.68,0,0,1,0-27.4Zm22.14,5.1a12,12,0,0,0-16.72,0,12.8,12.8,0,0,0,0,17.2,12,12,0,0,0,16.72,0,12.8,12.8,0,0,0,0-17.2Z" transform="translate(-75.15 -124.66)" fill="#0a0b0b"/><path d="M631,281.42h8L626.71,318.6h-9.56L605,281.42h8l8.92,28.2Z" transform="translate(-75.15 -124.66)" fill="#0a0b0b"/><path d="M667.39,281.42H675V318.6h-8.76l-16.14-26,.69,10.46V318.6h-7.6V281.42h8.71l16.2,26L667.39,297Z" transform="translate(-75.15 -124.66)" fill="#0a0b0b"/><path d="M687.57,265.76l4.51,4.51-9.82,7.44-3.3-3.35Zm-5.84,52.84V281.42h7.59V318.6Z" transform="translate(-75.15 -124.66)" fill="#0a0b0b"/><path d="M419.45,382.32l-3.13-8.76h-15l-3.19,8.76h-8L404,345.15h9.61l13.91,37.17Zm-15.56-16h9.78l-4.89-13.49Z" transform="translate(-75.15 -124.66)" fill="#0a0b0b"/><path d="M445.37,362.14h20.34v20.18h-6.48v-6.27a10.64,10.64,0,0,1-4.65,5A15.56,15.56,0,0,1,446.7,383a17.7,17.7,0,0,1-13.18-5.45,19.51,19.51,0,0,1,25.36-29.41,17.2,17.2,0,0,1,6.51,9.37h-8.13a9.71,9.71,0,0,0-3.9-4.22,11.57,11.57,0,0,0-6-1.52,10.91,10.91,0,0,0-8.34,3.4,12.28,12.28,0,0,0-3.19,8.76,12.46,12.46,0,0,0,3.06,8.63,10.6,10.6,0,0,0,8.36,3.43,11.63,11.63,0,0,0,6.74-2,9.37,9.37,0,0,0,3.83-5.47H445.37Z" transform="translate(-75.15 -124.66)" fill="#0a0b0b"/><path d="M497.41,352.37H480v7.49H496v7.22H480v8h17.37v7.22h-25V345.15h25Z" transform="translate(-75.15 -124.66)" fill="#0a0b0b"/><path d="M526.35,345.15h7.59v37.17h-8.76L509,356.3l.69,10.46v15.56h-7.6V345.15h8.71l16.2,26-.69-10.46Z" transform="translate(-75.15 -124.66)" fill="#0a0b0b"/><path d="M567.13,345.15v7.22H556.4v29.95h-7.59V352.37H538.14v-7.22Z" transform="translate(-75.15 -124.66)" fill="#0a0b0b"/><path d="M594.58,345.15h7.7v22.14q0,7.6-4.24,11.63a17.27,17.27,0,0,1-22.2,0q-4.25-4-4.25-11.63V345.15h7.7v21.72q0,8.86,7.65,8.87t7.64-8.87Z" transform="translate(-75.15 -124.66)" fill="#0a0b0b"/><path d="M630.43,382.32l-9.61-13.38h-4.2v13.38H609V345.15h16q6,0,9.32,3.26a11.75,11.75,0,0,1,3.37,8.85,11.56,11.56,0,0,1-2.17,7.27,10.84,10.84,0,0,1-6.16,3.82l10.4,14Zm-13.81-29.95v9.93h7.54a6.39,6.39,0,0,0,4.38-1.3,5.27,5.27,0,0,0,0-7.3,6.34,6.34,0,0,0-4.36-1.33Z" transform="translate(-75.15 -124.66)" fill="#0a0b0b"/><path d="M671,382.32l-3.13-8.76h-15l-3.19,8.76h-8l13.92-37.17h9.61l13.91,37.17Zm-15.56-16h9.77l-4.88-13.49Z" transform="translate(-75.15 -124.66)" fill="#0a0b0b"/></g></svg>