<?xml version="1.0" encoding="utf-8"?>
<!-- Generator: Adobe Illustrator 24.1.1, SVG Export Plug-In . SVG Version: 6.00 Build 0)  -->
<svg version="1.1" id="Vrstva_1" xmlns="http://www.w3.org/2000/svg" xmlns:xlink="http://www.w3.org/1999/xlink" x="0px" y="0px"
	 viewBox="0 0 102.4 117.7" style="enable-background:new 0 0 102.4 117.7;" xml:space="preserve">
<style type="text/css">
	.st0{display:none;fill:#FFED00;}
	.st1{fill:#E62A25;}
	.st2{fill:#FFFFFF;}
</style>
<rect x="0" class="st0" width="102.4" height="116.6"/>
<path class="st1" d="M1.5,3.7v64.1c0,12.5,5.2,24.2,14.6,33.1c9.4,8.8,21.9,13.7,35,13.7c14.9,0,29.5-6.8,39-18.2l0.1-0.1
	c6.8-8.2,10.6-18.3,10.6-28.5V3.7H1.5z"/>
<path class="st2" d="M4.4,6.9v60.3C4.4,79,9.3,90,18.2,98.4c8.9,8.3,20.6,12.9,33,12.9c14.1,0,27.8-6.4,36.8-17.1l0.1-0.1
	c6.4-7.7,10-17.3,10-26.8V6.9H4.4z M95.1,9.8v16.8H7.3V9.8H95.1z M85.8,92.3L85.8,92.3c-8.5,10.1-21.4,16.2-34.6,16.2
	c-11.7,0-22.7-4.3-31-12.1C11.8,88.5,7.3,78.2,7.3,67.2V29.4h87.9v37.9C95.1,76.2,91.8,85,85.8,92.3z"/>
<g>
	<path class="st2" d="M19.3,12.9c-2.9,0-5.2,2.3-5.2,5.2c0,2.9,2.3,5.2,5.2,5.2c2.9,0,5.2-2.3,5.2-5.2
		C24.6,15.3,22.2,12.9,19.3,12.9z M19.3,21.3c-1.8,0-3.2-1.4-3.2-3.2c0-1.8,1.4-3.2,3.2-3.2c1.8,0,3.2,1.4,3.2,3.2
		C22.5,19.9,21.1,21.3,19.3,21.3z"/>
</g>
<g>
	<path class="st2" d="M35.3,12.9c-2.9,0-5.2,2.3-5.2,5.2c0,2.9,2.3,5.2,5.2,5.2c2.9,0,5.2-2.3,5.2-5.2
		C40.5,15.3,38.1,12.9,35.3,12.9z M35.3,21.3c-1.8,0-3.2-1.4-3.2-3.2c0-1.8,1.4-3.2,3.2-3.2c1.8,0,3.2,1.4,3.2,3.2
		C38.5,19.9,37,21.3,35.3,21.3z"/>
</g>
<g>
	<path class="st2" d="M51.2,12.9c-2.9,0-5.2,2.3-5.2,5.2c0,2.9,2.3,5.2,5.2,5.2c2.9,0,5.2-2.3,5.2-5.2
		C56.4,15.3,54.1,12.9,51.2,12.9z M51.2,21.3c-1.8,0-3.2-1.4-3.2-3.2c0-1.8,1.4-3.2,3.2-3.2c1.8,0,3.2,1.4,3.2,3.2
		C54.4,19.9,53,21.3,51.2,21.3z"/>
</g>
<g>
	<path class="st2" d="M67.1,12.9c-2.9,0-5.2,2.3-5.2,5.2c0,2.9,2.3,5.2,5.2,5.2c2.9,0,5.2-2.3,5.2-5.2C72.3,15.3,70,12.9,67.1,12.9z
		 M67.1,21.3c-1.8,0-3.2-1.4-3.2-3.2c0-1.8,1.4-3.2,3.2-3.2c1.8,0,3.2,1.4,3.2,3.2C70.3,19.9,68.9,21.3,67.1,21.3z"/>
</g>
<g>
	<path class="st2" d="M83,12.9c-2.9,0-5.2,2.3-5.2,5.2c0,2.9,2.3,5.2,5.2,5.2c2.9,0,5.2-2.3,5.2-5.2C88.2,15.3,85.9,12.9,83,12.9z
		 M83,21.3c-1.8,0-3.2-1.4-3.2-3.2c0-1.8,1.4-3.2,3.2-3.2c1.8,0,3.2,1.4,3.2,3.2C86.2,19.9,84.8,21.3,83,21.3z"/>
</g>
<polygon class="st2" points="75.6,35.9 63.4,88.9 51.2,35.9 39,88.9 26.8,35.9 14.3,90 38.7,90 39.3,90 63.1,90 63.7,90 88.1,90 "/>
</svg>
